<?xml version="1.0" encoding="UTF-8" standalone="no"?>
<!DOCTYPE svg PUBLIC "-//W3C//DTD SVG 1.1//EN"
 "http://www.w3.org/Graphics/SVG/1.1/DTD/svg11.dtd">
<!-- Generated by graphviz version 12.2.1 (20241206.2353)
 -->
<!-- Title: GUI Pages: 1 -->
<svg width="803pt" height="260pt"
 viewBox="0.00 0.00 802.50 260.00" xmlns="http://www.w3.org/2000/svg" xmlns:xlink="http://www.w3.org/1999/xlink">
<g id="graph0" class="graph" transform="scale(1 1) rotate(0) translate(4 256)">
<title>GUI</title>
<polygon fill="white" stroke="none" points="-4,4 -4,-256 798.5,-256 798.5,4 -4,4"/>
<!-- Gaussian2Blender -->
<g id="node1" class="node">
<title>Gaussian2Blender</title>
<polygon fill="gray" stroke="black" points="609.5,-252 494.5,-252 494.5,-216 609.5,-216 609.5,-252"/>
<text text-anchor="middle" x="552" y="-228.95" font-family="Times New Roman,serif" font-size="14.00" fill="white">Gaussian2Blender</text>
</g>
<!-- convert_manager -->
<g id="node2" class="node">
<title>convert_manager</title>
<polygon fill="lightblue" stroke="black" points="466.75,-180 299.25,-180 299.25,-144 466.75,-144 466.75,-180"/>
<text text-anchor="middle" x="383" y="-156.95" font-family="Times New Roman,serif" font-size="14.00">convert_manager(exec_loc)</text>
</g>
<!-- Gaussian2Blender&#45;&gt;convert_manager -->
<g id="edge1" class="edge">
<title>Gaussian2Blender&#45;&gt;convert_manager</title>
<path fill="none" stroke="black" d="M509.79,-215.52C487.22,-206.17 459.23,-194.57 435.29,-184.66"/>
<polygon fill="black" stroke="black" points="436.94,-181.55 426.36,-180.96 434.26,-188.02 436.94,-181.55"/>
</g>
<!-- help_single_convert -->
<g id="node8" class="node">
<title>help_single_convert</title>
<polygon fill="lightblue" stroke="black" points="619.25,-180 484.75,-180 484.75,-144 619.25,-144 619.25,-180"/>
<text text-anchor="middle" x="552" y="-156.95" font-family="Times New Roman,serif" font-size="14.00">help_single_convert()</text>
</g>
<!-- Gaussian2Blender&#45;&gt;help_single_convert -->
<g id="edge2" class="edge">
<title>Gaussian2Blender&#45;&gt;help_single_convert</title>
<path fill="none" stroke="black" d="M552,-215.7C552,-208.41 552,-199.73 552,-191.54"/>
<polygon fill="black" stroke="black" points="555.5,-191.62 552,-181.62 548.5,-191.62 555.5,-191.62"/>
</g>
<!-- help_animation_convert -->
<g id="node9" class="node">
<title>help_animation_convert</title>
<polygon fill="lightblue" stroke="black" points="794.5,-180 637.5,-180 637.5,-144 794.5,-144 794.5,-180"/>
<text text-anchor="middle" x="716" y="-156.95" font-family="Times New Roman,serif" font-size="14.00">help_animation_convert()</text>
</g>
<!-- Gaussian2Blender&#45;&gt;help_animation_convert -->
<g id="edge3" class="edge">
<title>Gaussian2Blender&#45;&gt;help_animation_convert</title>
<path fill="none" stroke="black" d="M592.96,-215.52C614.76,-206.21 641.78,-194.68 664.94,-184.79"/>
<polygon fill="black" stroke="black" points="666.06,-188.12 673.89,-180.98 663.31,-181.68 666.06,-188.12"/>
</g>
<!-- individual_convert -->
<g id="node3" class="node">
<title>individual_convert</title>
<polygon fill="lightblue" stroke="black" points="295.12,-108 156.88,-108 156.88,-72 295.12,-72 295.12,-108"/>
<text text-anchor="middle" x="226" y="-84.95" font-family="Times New Roman,serif" font-size="14.00">individual_convert(...)</text>
</g>
<!-- convert_manager&#45;&gt;individual_convert -->
<g id="edge6" class="edge">
<title>convert_manager&#45;&gt;individual_convert</title>
<path fill="none" stroke="black" d="M343.79,-143.52C323.1,-134.29 297.52,-122.89 275.48,-113.06"/>
<polygon fill="black" stroke="black" points="276.93,-109.87 266.37,-109 274.08,-116.27 276.93,-109.87"/>
</g>
<!-- assign_ionic_params -->
<g id="node4" class="node">
<title>assign_ionic_params</title>
<polygon fill="lightblue" stroke="black" points="452.5,-108 313.5,-108 313.5,-72 452.5,-72 452.5,-108"/>
<text text-anchor="middle" x="383" y="-84.95" font-family="Times New Roman,serif" font-size="14.00">assign_ionic_params()</text>
</g>
<!-- convert_manager&#45;&gt;assign_ionic_params -->
<g id="edge5" class="edge">
<title>convert_manager&#45;&gt;assign_ionic_params</title>
<path fill="none" stroke="black" d="M377.08,-143.7C376.33,-136.41 376.09,-127.73 376.35,-119.54"/>
<polygon fill="black" stroke="black" points="379.84,-119.82 377.01,-109.61 372.86,-119.36 379.84,-119.82"/>
</g>
<!-- exceptions_test_passed -->
<g id="node7" class="node">
<title>exceptions_test_passed</title>
<polygon fill="lightblue" stroke="black" points="755.62,-108 470.38,-108 470.38,-72 755.62,-72 755.62,-108"/>
<text text-anchor="middle" x="613" y="-84.95" font-family="Times New Roman,serif" font-size="14.00">exceptions_test_passed(b_path, i_names, o_path)</text>
</g>
<!-- convert_manager&#45;&gt;exceptions_test_passed -->
<g id="edge4" class="edge">
<title>convert_manager&#45;&gt;exceptions_test_passed</title>
<path fill="none" stroke="black" d="M440.45,-143.52C472.12,-133.88 511.65,-121.84 544.88,-111.73"/>
<polygon fill="black" stroke="black" points="545.89,-115.08 554.44,-108.82 543.85,-108.39 545.89,-115.08"/>
</g>
<!-- overwrite_animation_frames -->
<g id="node5" class="node">
<title>overwrite_animation_frames</title>
<polygon fill="lightblue" stroke="black" points="226,-36 0,-36 0,0 226,0 226,-36"/>
<text text-anchor="middle" x="113" y="-12.95" font-family="Times New Roman,serif" font-size="14.00">overwrite_animation_frames(is_anim)</text>
</g>
<!-- individual_convert&#45;&gt;overwrite_animation_frames -->
<g id="edge7" class="edge">
<title>individual_convert&#45;&gt;overwrite_animation_frames</title>
<path fill="none" stroke="black" d="M191.84,-71.52C176.68,-62.68 159.02,-51.84 144.21,-42.3"/>
<polygon fill="black" stroke="black" points="146.51,-39.62 136.22,-37.09 142.68,-45.48 146.51,-39.62"/>
</g>
<!-- overwrite_parameters_script -->
<g id="node6" class="node">
<title>overwrite_parameters_script</title>
<polygon fill="lightblue" stroke="black" points="435.75,-36 244.25,-36 244.25,0 435.75,0 435.75,-36"/>
<text text-anchor="middle" x="340" y="-12.95" font-family="Times New Roman,serif" font-size="14.00">overwrite_parameters_script(...)</text>
</g>
<!-- individual_convert&#45;&gt;overwrite_parameters_script -->
<g id="edge8" class="edge">
<title>individual_convert&#45;&gt;overwrite_parameters_script</title>
<path fill="none" stroke="black" d="M248.54,-71.52C262.16,-62.6 279.87,-51.63 296.11,-42.03"/>
<polygon fill="black" stroke="black" points="297.8,-45.09 304.67,-37.02 294.27,-39.05 297.8,-45.09"/>
</g>
<!-- assign_ionic_params&#45;&gt;convert_manager -->
<g id="edge9" class="edge">
<title>assign_ionic_params&#45;&gt;convert_manager</title>
<path fill="none" stroke="black" d="M388.9,-108.1C389.66,-115.37 389.91,-124.04 389.65,-132.24"/>
<polygon fill="black" stroke="black" points="386.16,-131.98 389.01,-142.19 393.15,-132.43 386.16,-131.98"/>
</g>
<!-- overwrite_animation_frames&#45;&gt;individual_convert -->
<g id="edge10" class="edge">
<title>overwrite_animation_frames&#45;&gt;individual_convert</title>
<path fill="none" stroke="black" d="M146.77,-36.26C161.89,-45.06 179.56,-55.9 194.41,-65.46"/>
<polygon fill="black" stroke="black" points="192.15,-68.16 202.44,-70.69 195.98,-62.3 192.15,-68.16"/>
</g>
<!-- overwrite_parameters_script&#45;&gt;individual_convert -->
<g id="edge11" class="edge">
<title>overwrite_parameters_script&#45;&gt;individual_convert</title>
<path fill="none" stroke="black" d="M317.8,-36.26C304.25,-45.15 286.56,-56.11 270.3,-65.73"/>
<polygon fill="black" stroke="black" points="268.58,-62.68 261.71,-70.75 272.11,-68.72 268.58,-62.68"/>
</g>
</g>
</svg>
