<?xml version="1.0" encoding="UTF-8" standalone="no"?>
<!DOCTYPE svg PUBLIC "-//W3C//DTD SVG 1.1//EN"
 "http://www.w3.org/Graphics/SVG/1.1/DTD/svg11.dtd">
<!-- Generated by graphviz version 12.2.1 (20241206.2353)
 -->
<!-- Title: Gaussian2Blender Pages: 1 -->
<svg width="1233pt" height="404pt"
 viewBox="0.00 0.00 1232.75 404.00" xmlns="http://www.w3.org/2000/svg" xmlns:xlink="http://www.w3.org/1999/xlink">
<g id="graph0" class="graph" transform="scale(1 1) rotate(0) translate(4 400)">
<title>Gaussian2Blender</title>
<polygon fill="white" stroke="none" points="-4,4 -4,-400 1228.75,-400 1228.75,4 -4,4"/>
<!-- Gaussian2Blender -->
<g id="node1" class="node">
<title>Gaussian2Blender</title>
<polygon fill="gray" stroke="black" points="545.5,-396 430.5,-396 430.5,-360 545.5,-360 545.5,-396"/>
<text text-anchor="middle" x="488" y="-372.95" font-family="Times New Roman,serif" font-size="14.00" fill="white">Gaussian2Blender</text>
</g>
<!-- assign_ionic_params -->
<g id="node2" class="node">
<title>assign_ionic_params</title>
<polygon fill="lightblue" stroke="black" points="130,-180 0,-180 0,-144 130,-144 130,-180"/>
<text text-anchor="middle" x="65" y="-156.95" font-family="Times New Roman,serif" font-size="14.00">assign_ionic_params</text>
</g>
<!-- Gaussian2Blender&#45;&gt;assign_ionic_params -->
<g id="edge1" class="edge">
<title>Gaussian2Blender&#45;&gt;assign_ionic_params</title>
<path fill="none" stroke="black" d="M430.39,-373.98C314.56,-367.39 62.01,-350.17 33,-324 -3.03,-291.49 -0.45,-261.28 17,-216 20.9,-205.88 27.73,-196.49 35.04,-188.51"/>
<polygon fill="black" stroke="black" points="37.42,-191.09 41.97,-181.52 32.45,-186.16 37.42,-191.09"/>
</g>
<!-- convert -->
<g id="node3" class="node">
<title>convert</title>
<polygon fill="lightblue" stroke="black" points="109.25,-324 52.75,-324 52.75,-288 109.25,-288 109.25,-324"/>
<text text-anchor="middle" x="81" y="-300.95" font-family="Times New Roman,serif" font-size="14.00">convert</text>
</g>
<!-- Gaussian2Blender&#45;&gt;convert -->
<g id="edge2" class="edge">
<title>Gaussian2Blender&#45;&gt;convert</title>
<path fill="none" stroke="black" d="M430.18,-373.88C358.73,-368.9 233.66,-356.49 120.3,-324.2"/>
<polygon fill="black" stroke="black" points="121.4,-320.88 110.82,-321.44 119.44,-327.6 121.4,-320.88"/>
</g>
<!-- convert_manager -->
<g id="node4" class="node">
<title>convert_manager</title>
<polygon fill="lightblue" stroke="black" points="136.25,-252 25.75,-252 25.75,-216 136.25,-216 136.25,-252"/>
<text text-anchor="middle" x="81" y="-228.95" font-family="Times New Roman,serif" font-size="14.00">convert_manager</text>
</g>
<!-- Gaussian2Blender&#45;&gt;convert_manager -->
<g id="edge3" class="edge">
<title>Gaussian2Blender&#45;&gt;convert_manager</title>
<path fill="none" stroke="black" d="M430.43,-374.32C316.1,-368.4 69.25,-352.45 44,-324 28.06,-306.04 41.62,-280.25 56.61,-261.05"/>
<polygon fill="black" stroke="black" points="59.29,-263.3 63,-253.38 53.91,-258.82 59.29,-263.3"/>
</g>
<!-- exceptions_test_passed -->
<g id="node5" class="node">
<title>exceptions_test_passed</title>
<polygon fill="lightblue" stroke="black" points="290,-180 148,-180 148,-144 290,-144 290,-180"/>
<text text-anchor="middle" x="219" y="-156.95" font-family="Times New Roman,serif" font-size="14.00">exceptions_test_passed</text>
</g>
<!-- Gaussian2Blender&#45;&gt;exceptions_test_passed -->
<g id="edge4" class="edge">
<title>Gaussian2Blender&#45;&gt;exceptions_test_passed</title>
<path fill="none" stroke="black" d="M480.74,-359.58C471.44,-339.4 453.45,-306.56 428,-288 381.63,-254.19 353.06,-281.77 304,-252 289.73,-243.34 261.21,-212.09 241.16,-189.06"/>
<polygon fill="black" stroke="black" points="243.84,-186.82 234.66,-181.54 238.55,-191.39 243.84,-186.82"/>
</g>
<!-- help_animation_convert -->
<g id="node6" class="node">
<title>help_animation_convert</title>
<polygon fill="lightblue" stroke="black" points="419,-324 271,-324 271,-288 419,-288 419,-324"/>
<text text-anchor="middle" x="345" y="-300.95" font-family="Times New Roman,serif" font-size="14.00">help_animation_convert</text>
</g>
<!-- Gaussian2Blender&#45;&gt;help_animation_convert -->
<g id="edge5" class="edge">
<title>Gaussian2Blender&#45;&gt;help_animation_convert</title>
<path fill="none" stroke="black" d="M452.28,-359.52C433.55,-350.34 410.39,-339.01 390.39,-329.22"/>
<polygon fill="black" stroke="black" points="392.14,-326.18 381.62,-324.93 389.06,-332.47 392.14,-326.18"/>
</g>
<!-- help_single_convert -->
<g id="node7" class="node">
<title>help_single_convert</title>
<polygon fill="lightblue" stroke="black" points="252.75,-324 127.25,-324 127.25,-288 252.75,-288 252.75,-324"/>
<text text-anchor="middle" x="190" y="-300.95" font-family="Times New Roman,serif" font-size="14.00">help_single_convert</text>
</g>
<!-- Gaussian2Blender&#45;&gt;help_single_convert -->
<g id="edge6" class="edge">
<title>Gaussian2Blender&#45;&gt;help_single_convert</title>
<path fill="none" stroke="black" d="M430.4,-363.52C387.23,-353.41 326.37,-339.14 264.04,-324.48"/>
<polygon fill="black" stroke="black" points="265.22,-321.16 254.69,-322.28 263.62,-327.98 265.22,-321.16"/>
</g>
<!-- individual_convert -->
<g id="node8" class="node">
<title>individual_convert</title>
<polygon fill="lightblue" stroke="black" points="1024,-180 906,-180 906,-144 1024,-144 1024,-180"/>
<text text-anchor="middle" x="965" y="-156.95" font-family="Times New Roman,serif" font-size="14.00">individual_convert</text>
</g>
<!-- Gaussian2Blender&#45;&gt;individual_convert -->
<g id="edge7" class="edge">
<title>Gaussian2Blender&#45;&gt;individual_convert</title>
<path fill="none" stroke="black" d="M545.77,-374.27C662.57,-368.18 918.13,-351.81 946,-324 980.55,-289.53 977.01,-227.89 971.13,-191.7"/>
<polygon fill="black" stroke="black" points="974.6,-191.19 969.37,-181.97 967.71,-192.43 974.6,-191.19"/>
</g>
<!-- initialize_animation_tutorial -->
<g id="node9" class="node">
<title>initialize_animation_tutorial</title>
<polygon fill="lightblue" stroke="black" points="771.25,-324 600.75,-324 600.75,-288 771.25,-288 771.25,-324"/>
<text text-anchor="middle" x="686" y="-300.95" font-family="Times New Roman,serif" font-size="14.00">initialize_animation_tutorial</text>
</g>
<!-- Gaussian2Blender&#45;&gt;initialize_animation_tutorial -->
<g id="edge8" class="edge">
<title>Gaussian2Blender&#45;&gt;initialize_animation_tutorial</title>
<path fill="none" stroke="black" d="M537.45,-359.52C564.37,-350 597.87,-338.16 626.24,-328.13"/>
<polygon fill="black" stroke="black" points="627.15,-331.52 635.41,-324.89 624.81,-324.92 627.15,-331.52"/>
</g>
<!-- initialize_single_tutorial -->
<g id="node10" class="node">
<title>initialize_single_tutorial</title>
<polygon fill="lightblue" stroke="black" points="937,-324 789,-324 789,-288 937,-288 937,-324"/>
<text text-anchor="middle" x="863" y="-300.95" font-family="Times New Roman,serif" font-size="14.00">initialize_single_tutorial</text>
</g>
<!-- Gaussian2Blender&#45;&gt;initialize_single_tutorial -->
<g id="edge9" class="edge">
<title>Gaussian2Blender&#45;&gt;initialize_single_tutorial</title>
<path fill="none" stroke="black" d="M545.97,-366.87C602.52,-356.91 691.28,-341.03 777.73,-324.42"/>
<polygon fill="black" stroke="black" points="778.16,-327.9 787.32,-322.57 776.84,-321.02 778.16,-327.9"/>
</g>
<!-- overwrite_animation_frames -->
<g id="node11" class="node">
<title>overwrite_animation_frames</title>
<polygon fill="lightblue" stroke="black" points="1224.75,-108 1051.25,-108 1051.25,-72 1224.75,-72 1224.75,-108"/>
<text text-anchor="middle" x="1138" y="-84.95" font-family="Times New Roman,serif" font-size="14.00">overwrite_animation_frames</text>
</g>
<!-- Gaussian2Blender&#45;&gt;overwrite_animation_frames -->
<g id="edge10" class="edge">
<title>Gaussian2Blender&#45;&gt;overwrite_animation_frames</title>
<path fill="none" stroke="black" d="M545.74,-376.81C663.52,-375.5 926.89,-367.62 1004,-324 1081.81,-279.98 1118.21,-171.36 1131.6,-119.48"/>
<polygon fill="black" stroke="black" points="1134.96,-120.46 1133.95,-109.91 1128.16,-118.79 1134.96,-120.46"/>
</g>
<!-- overwrite_parameters_script -->
<g id="node12" class="node">
<title>overwrite_parameters_script</title>
<polygon fill="lightblue" stroke="black" points="1033.62,-108 862.38,-108 862.38,-72 1033.62,-72 1033.62,-108"/>
<text text-anchor="middle" x="948" y="-84.95" font-family="Times New Roman,serif" font-size="14.00">overwrite_parameters_script</text>
</g>
<!-- Gaussian2Blender&#45;&gt;overwrite_parameters_script -->
<g id="edge11" class="edge">
<title>Gaussian2Blender&#45;&gt;overwrite_parameters_script</title>
<path fill="none" stroke="black" d="M545.79,-377.69C658.82,-377.92 903.87,-372.62 970,-324 1038.29,-273.79 1074.13,-218.11 1033,-144 1026.14,-131.64 1015.07,-121.79 1003.15,-114.09"/>
<polygon fill="black" stroke="black" points="1005.17,-111.22 994.78,-109.15 1001.61,-117.25 1005.17,-111.22"/>
</g>
<!-- reset_to_defaults -->
<g id="node13" class="node">
<title>reset_to_defaults</title>
<polygon fill="lightblue" stroke="black" points="583.12,-324 474.88,-324 474.88,-288 583.12,-288 583.12,-324"/>
<text text-anchor="middle" x="529" y="-300.95" font-family="Times New Roman,serif" font-size="14.00">reset_to_defaults</text>
</g>
<!-- Gaussian2Blender&#45;&gt;reset_to_defaults -->
<g id="edge12" class="edge">
<title>Gaussian2Blender&#45;&gt;reset_to_defaults</title>
<path fill="none" stroke="black" d="M498.13,-359.7C502.7,-351.9 508.2,-342.51 513.29,-333.83"/>
<polygon fill="black" stroke="black" points="516.18,-335.81 518.22,-325.41 510.14,-332.27 516.18,-335.81"/>
</g>
<!-- IonRegion -->
<g id="node14" class="node">
<title>IonRegion</title>
<polygon fill="lightgreen" stroke="black" points="255.5,-108 182.5,-108 182.5,-72 255.5,-72 255.5,-108"/>
<text text-anchor="middle" x="219" y="-84.95" font-family="Times New Roman,serif" font-size="14.00">IonRegion</text>
</g>
<!-- assign_ionic_params&#45;&gt;IonRegion -->
<g id="edge13" class="edge">
<title>assign_ionic_params&#45;&gt;IonRegion</title>
<path fill="none" stroke="black" d="M103.46,-143.52C124.13,-134.12 149.8,-122.46 171.69,-112.51"/>
<polygon fill="black" stroke="black" points="173.05,-115.73 180.71,-108.4 170.16,-109.36 173.05,-115.73"/>
</g>
<!-- convert&#45;&gt;convert_manager -->
<g id="edge14" class="edge">
<title>convert&#45;&gt;convert_manager</title>
<path fill="none" stroke="black" d="M81,-287.7C81,-280.41 81,-271.73 81,-263.54"/>
<polygon fill="black" stroke="black" points="84.5,-263.62 81,-253.62 77.5,-263.62 84.5,-263.62"/>
</g>
<!-- convert_manager&#45;&gt;assign_ionic_params -->
<g id="edge16" class="edge">
<title>convert_manager&#45;&gt;assign_ionic_params</title>
<path fill="none" stroke="black" d="M77.04,-215.7C75.36,-208.32 73.35,-199.52 71.46,-191.25"/>
<polygon fill="black" stroke="black" points="74.89,-190.55 69.25,-181.58 68.06,-192.11 74.89,-190.55"/>
</g>
<!-- convert_manager&#45;&gt;exceptions_test_passed -->
<g id="edge15" class="edge">
<title>convert_manager&#45;&gt;exceptions_test_passed</title>
<path fill="none" stroke="black" d="M115.47,-215.52C133.47,-206.39 155.69,-195.11 174.93,-185.35"/>
<polygon fill="black" stroke="black" points="176.29,-188.59 183.62,-180.95 173.12,-182.35 176.29,-188.59"/>
</g>
<!-- convert_manager&#45;&gt;individual_convert -->
<g id="edge17" class="edge">
<title>convert_manager&#45;&gt;individual_convert</title>
<path fill="none" stroke="black" d="M136.71,-222.71C151.7,-220.21 167.93,-217.76 183,-216 444.6,-185.41 757.66,-170.78 894.82,-165.46"/>
<polygon fill="black" stroke="black" points="894.59,-168.97 904.45,-165.09 894.32,-161.98 894.59,-168.97"/>
</g>
<!-- exceptions_test_passed&#45;&gt;IonRegion -->
<g id="edge20" class="edge">
<title>exceptions_test_passed&#45;&gt;IonRegion</title>
<path fill="none" stroke="black" d="M219,-143.7C219,-136.41 219,-127.73 219,-119.54"/>
<polygon fill="black" stroke="black" points="222.5,-119.62 219,-109.62 215.5,-119.62 222.5,-119.62"/>
</g>
<!-- BlenderPath -->
<g id="node17" class="node">
<title>BlenderPath</title>
<polygon fill="lightgreen" stroke="black" points="427.38,-108 344.62,-108 344.62,-72 427.38,-72 427.38,-108"/>
<text text-anchor="middle" x="386" y="-84.95" font-family="Times New Roman,serif" font-size="14.00">BlenderPath</text>
</g>
<!-- exceptions_test_passed&#45;&gt;BlenderPath -->
<g id="edge18" class="edge">
<title>exceptions_test_passed&#45;&gt;BlenderPath</title>
<path fill="none" stroke="black" d="M260.71,-143.52C282.91,-134.21 310.42,-122.68 334.01,-112.79"/>
<polygon fill="black" stroke="black" points="335.27,-116.06 343.14,-108.97 332.56,-109.6 335.27,-116.06"/>
</g>
<!-- InputRegion -->
<g id="node19" class="node">
<title>InputRegion</title>
<polygon fill="lightgreen" stroke="black" points="727.75,-108 644.25,-108 644.25,-72 727.75,-72 727.75,-108"/>
<text text-anchor="middle" x="686" y="-84.95" font-family="Times New Roman,serif" font-size="14.00">InputRegion</text>
</g>
<!-- exceptions_test_passed&#45;&gt;InputRegion -->
<g id="edge19" class="edge">
<title>exceptions_test_passed&#45;&gt;InputRegion</title>
<path fill="none" stroke="black" d="M290.44,-150.29C384.63,-136.17 548.26,-111.65 632.5,-99.02"/>
<polygon fill="black" stroke="black" points="632.97,-102.49 642.34,-97.54 631.94,-95.56 632.97,-102.49"/>
</g>
<!-- Tutorial -->
<g id="node15" class="node">
<title>Tutorial</title>
<polygon fill="lightgreen" stroke="black" points="251.75,-252 192.25,-252 192.25,-216 251.75,-216 251.75,-252"/>
<text text-anchor="middle" x="222" y="-228.95" font-family="Times New Roman,serif" font-size="14.00">Tutorial</text>
</g>
<!-- help_animation_convert&#45;&gt;Tutorial -->
<g id="edge21" class="edge">
<title>help_animation_convert&#45;&gt;Tutorial</title>
<path fill="none" stroke="black" d="M314.28,-287.52C298.34,-278.44 278.68,-267.26 261.61,-257.54"/>
<polygon fill="black" stroke="black" points="263.64,-254.67 253.22,-252.77 260.18,-260.76 263.64,-254.67"/>
</g>
<!-- help_single_convert&#45;&gt;Tutorial -->
<g id="edge22" class="edge">
<title>help_single_convert&#45;&gt;Tutorial</title>
<path fill="none" stroke="black" d="M197.91,-287.7C201.4,-280.07 205.58,-270.92 209.48,-262.4"/>
<polygon fill="black" stroke="black" points="212.58,-264.03 213.55,-253.48 206.21,-261.12 212.58,-264.03"/>
</g>
<!-- individual_convert&#45;&gt;overwrite_animation_frames -->
<g id="edge23" class="edge">
<title>individual_convert&#45;&gt;overwrite_animation_frames</title>
<path fill="none" stroke="black" d="M1008.21,-143.52C1031.31,-134.17 1059.97,-122.57 1084.47,-112.66"/>
<polygon fill="black" stroke="black" points="1085.68,-115.94 1093.64,-108.95 1083.06,-109.46 1085.68,-115.94"/>
</g>
<!-- individual_convert&#45;&gt;overwrite_parameters_script -->
<g id="edge24" class="edge">
<title>individual_convert&#45;&gt;overwrite_parameters_script</title>
<path fill="none" stroke="black" d="M960.8,-143.7C959.01,-136.32 956.87,-127.52 954.86,-119.25"/>
<polygon fill="black" stroke="black" points="958.27,-118.47 952.51,-109.58 951.47,-120.12 958.27,-118.47"/>
</g>
<!-- OutputRegion -->
<g id="node18" class="node">
<title>OutputRegion</title>
<polygon fill="lightgreen" stroke="black" points="732.25,-252 639.75,-252 639.75,-216 732.25,-216 732.25,-252"/>
<text text-anchor="middle" x="686" y="-228.95" font-family="Times New Roman,serif" font-size="14.00">OutputRegion</text>
</g>
<!-- initialize_animation_tutorial&#45;&gt;OutputRegion -->
<g id="edge26" class="edge">
<title>initialize_animation_tutorial&#45;&gt;OutputRegion</title>
<path fill="none" stroke="black" d="M686,-287.7C686,-280.41 686,-271.73 686,-263.54"/>
<polygon fill="black" stroke="black" points="689.5,-263.62 686,-253.62 682.5,-263.62 689.5,-263.62"/>
</g>
<!-- initialize_animation_tutorial&#45;&gt;InputRegion -->
<g id="edge25" class="edge">
<title>initialize_animation_tutorial&#45;&gt;InputRegion</title>
<path fill="none" stroke="black" d="M711.67,-287.72C722.92,-278.58 734.93,-266.28 741,-252 760.69,-205.69 729.81,-149.71 706.95,-117.44"/>
<polygon fill="black" stroke="black" points="709.82,-115.43 701.07,-109.45 704.18,-119.58 709.82,-115.43"/>
</g>
<!-- ActionRegion -->
<g id="node22" class="node">
<title>ActionRegion</title>
<polygon fill="lightgrey" stroke="black" points="879.88,-252 788.12,-252 788.12,-216 879.88,-216 879.88,-252"/>
<text text-anchor="middle" x="834" y="-228.95" font-family="Times New Roman,serif" font-size="14.00">ActionRegion</text>
</g>
<!-- initialize_animation_tutorial&#45;&gt;ActionRegion -->
<g id="edge27" class="edge">
<title>initialize_animation_tutorial&#45;&gt;ActionRegion</title>
<path fill="none" stroke="black" d="M722.96,-287.52C742.37,-278.34 766.36,-266.99 787.07,-257.2"/>
<polygon fill="black" stroke="black" points="788.34,-260.47 795.88,-253.03 785.35,-254.14 788.34,-260.47"/>
</g>
<!-- initialize_single_tutorial&#45;&gt;OutputRegion -->
<g id="edge29" class="edge">
<title>initialize_single_tutorial&#45;&gt;OutputRegion</title>
<path fill="none" stroke="black" d="M818.79,-287.52C795.05,-278.13 765.58,-266.47 740.43,-256.53"/>
<polygon fill="black" stroke="black" points="741.94,-253.36 731.36,-252.94 739.37,-259.87 741.94,-253.36"/>
</g>
<!-- initialize_single_tutorial&#45;&gt;InputRegion -->
<g id="edge28" class="edge">
<title>initialize_single_tutorial&#45;&gt;InputRegion</title>
<path fill="none" stroke="black" d="M875.65,-287.71C887.58,-269.09 901.87,-239.05 889,-216 857.19,-159.06 787.63,-124.86 738.84,-106.97"/>
<polygon fill="black" stroke="black" points="740.17,-103.73 729.58,-103.7 737.84,-110.33 740.17,-103.73"/>
</g>
<!-- initialize_single_tutorial&#45;&gt;ActionRegion -->
<g id="edge30" class="edge">
<title>initialize_single_tutorial&#45;&gt;ActionRegion</title>
<path fill="none" stroke="black" d="M855.83,-287.7C852.71,-280.15 848.96,-271.12 845.47,-262.68"/>
<polygon fill="black" stroke="black" points="848.73,-261.4 841.67,-253.5 842.26,-264.08 848.73,-261.4"/>
</g>
<!-- Utility -->
<g id="node16" class="node">
<title>Utility</title>
<polygon fill="lightgreen" stroke="black" points="1070,-36 1016,-36 1016,0 1070,0 1070,-36"/>
<text text-anchor="middle" x="1043" y="-12.95" font-family="Times New Roman,serif" font-size="14.00">Utility</text>
</g>
<!-- overwrite_animation_frames&#45;&gt;Utility -->
<g id="edge31" class="edge">
<title>overwrite_animation_frames&#45;&gt;Utility</title>
<path fill="none" stroke="black" d="M1114.52,-71.7C1102.76,-63.03 1088.33,-52.4 1075.52,-42.96"/>
<polygon fill="black" stroke="black" points="1077.89,-40.36 1067.76,-37.24 1073.74,-45.99 1077.89,-40.36"/>
</g>
<!-- overwrite_parameters_script&#45;&gt;Utility -->
<g id="edge32" class="edge">
<title>overwrite_parameters_script&#45;&gt;Utility</title>
<path fill="none" stroke="black" d="M971.48,-71.7C983.24,-63.03 997.67,-52.4 1010.48,-42.96"/>
<polygon fill="black" stroke="black" points="1012.26,-45.99 1018.24,-37.24 1008.11,-40.36 1012.26,-45.99"/>
</g>
<!-- reset_to_defaults&#45;&gt;IonRegion -->
<g id="edge36" class="edge">
<title>reset_to_defaults&#45;&gt;IonRegion</title>
<path fill="none" stroke="black" d="M474.44,-291.26C419.52,-277.23 342.18,-256.84 337,-252 299.8,-217.28 330.28,-184.14 299,-144 289.95,-132.39 277.61,-122.48 265.34,-114.47"/>
<polygon fill="black" stroke="black" points="267.22,-111.52 256.86,-109.26 263.55,-117.48 267.22,-111.52"/>
</g>
<!-- reset_to_defaults&#45;&gt;Tutorial -->
<g id="edge39" class="edge">
<title>reset_to_defaults&#45;&gt;Tutorial</title>
<path fill="none" stroke="black" d="M474.47,-292.57C413.82,-278.74 317.25,-256.72 262.8,-244.3"/>
<polygon fill="black" stroke="black" points="263.86,-240.95 253.33,-242.14 262.3,-247.78 263.86,-240.95"/>
</g>
<!-- reset_to_defaults&#45;&gt;BlenderPath -->
<g id="edge33" class="edge">
<title>reset_to_defaults&#45;&gt;BlenderPath</title>
<path fill="none" stroke="black" d="M508.6,-287.6C497.83,-277.81 484.86,-264.97 475,-252 442.19,-208.82 413.75,-152.09 398.31,-118.78"/>
<polygon fill="black" stroke="black" points="401.56,-117.46 394.22,-109.81 395.19,-120.36 401.56,-117.46"/>
</g>
<!-- reset_to_defaults&#45;&gt;OutputRegion -->
<g id="edge34" class="edge">
<title>reset_to_defaults&#45;&gt;OutputRegion</title>
<path fill="none" stroke="black" d="M568.21,-287.52C588.9,-278.29 614.48,-266.89 636.52,-257.06"/>
<polygon fill="black" stroke="black" points="637.92,-260.27 645.63,-253 635.07,-253.87 637.92,-260.27"/>
</g>
<!-- reset_to_defaults&#45;&gt;InputRegion -->
<g id="edge35" class="edge">
<title>reset_to_defaults&#45;&gt;InputRegion</title>
<path fill="none" stroke="black" d="M553.91,-287.69C566.57,-278.11 581.64,-265.44 593,-252 628.56,-209.91 658.05,-152.36 673.75,-118.69"/>
<polygon fill="black" stroke="black" points="676.92,-120.17 677.9,-109.62 670.56,-117.25 676.92,-120.17"/>
</g>
<!-- ConsoleRegion -->
<g id="node20" class="node">
<title>ConsoleRegion</title>
<polygon fill="lightgreen" stroke="black" points="583.62,-252 484.38,-252 484.38,-216 583.62,-216 583.62,-252"/>
<text text-anchor="middle" x="534" y="-228.95" font-family="Times New Roman,serif" font-size="14.00">ConsoleRegion</text>
</g>
<!-- reset_to_defaults&#45;&gt;ConsoleRegion -->
<g id="edge37" class="edge">
<title>reset_to_defaults&#45;&gt;ConsoleRegion</title>
<path fill="none" stroke="black" d="M530.24,-287.7C530.76,-280.41 531.38,-271.73 531.96,-263.54"/>
<polygon fill="black" stroke="black" points="535.45,-263.84 532.67,-253.61 528.47,-263.34 535.45,-263.84"/>
</g>
<!-- Information -->
<g id="node21" class="node">
<title>Information</title>
<polygon fill="lightgreen" stroke="black" points="427.62,-252 346.38,-252 346.38,-216 427.62,-216 427.62,-252"/>
<text text-anchor="middle" x="387" y="-228.95" font-family="Times New Roman,serif" font-size="14.00">Information</text>
</g>
<!-- reset_to_defaults&#45;&gt;Information -->
<g id="edge38" class="edge">
<title>reset_to_defaults&#45;&gt;Information</title>
<path fill="none" stroke="black" d="M493.53,-287.52C474.93,-278.34 451.93,-267.01 432.07,-257.22"/>
<polygon fill="black" stroke="black" points="433.89,-254.21 423.37,-252.93 430.79,-260.49 433.89,-254.21"/>
</g>
</g>
</svg>
