<?xml version="1.0" encoding="UTF-8" standalone="no"?>
<!DOCTYPE svg PUBLIC "-//W3C//DTD SVG 1.1//EN"
 "http://www.w3.org/Graphics/SVG/1.1/DTD/svg11.dtd">
<!-- Generated by graphviz version 12.2.1 (20241206.2353)
 -->
<!-- Title: G Pages: 1 -->
<svg width="1802pt" height="116pt"
 viewBox="0.00 0.00 1802.00 116.00" xmlns="http://www.w3.org/2000/svg" xmlns:xlink="http://www.w3.org/1999/xlink">
<g id="graph0" class="graph" transform="scale(1 1) rotate(0) translate(4 112)">
<title>G</title>
<polygon fill="white" stroke="none" points="-4,4 -4,-112 1798,-112 1798,4 -4,4"/>
<!-- Main_Body -->
<g id="node1" class="node">
<title>Main_Body</title>
<polygon fill="none" stroke="black" points="1045.75,-108 964.5,-108 964.5,-72 1045.75,-72 1045.75,-108"/>
<text text-anchor="middle" x="1005.12" y="-84.95" font-family="Times New Roman,serif" font-size="14.00">Main_Body</text>
</g>
<!-- Obtain_Coords_Connect -->
<g id="node2" class="node">
<title>Obtain_Coords_Connect</title>
<polygon fill="none" stroke="black" points="150.25,-36 0,-36 0,0 150.25,0 150.25,-36"/>
<text text-anchor="middle" x="75.12" y="-12.95" font-family="Times New Roman,serif" font-size="14.00">Obtain_Coords_Connect</text>
</g>
<!-- Main_Body&#45;&gt;Obtain_Coords_Connect -->
<g id="edge1" class="edge">
<title>Main_Body&#45;&gt;Obtain_Coords_Connect</title>
<path fill="none" stroke="black" d="M964.43,-88.43C843.51,-86.3 475.73,-76.83 161.75,-36.24"/>
<polygon fill="black" stroke="black" points="162.47,-32.8 152.1,-34.98 161.56,-39.75 162.47,-32.8"/>
</g>
<!-- Read_xyz_File -->
<g id="node3" class="node">
<title>Read_xyz_File</title>
<polygon fill="none" stroke="black" points="266,-36 168.25,-36 168.25,0 266,0 266,-36"/>
<text text-anchor="middle" x="217.12" y="-12.95" font-family="Times New Roman,serif" font-size="14.00">Read_xyz_File</text>
</g>
<!-- Main_Body&#45;&gt;Read_xyz_File -->
<g id="edge2" class="edge">
<title>Main_Body&#45;&gt;Read_xyz_File</title>
<path fill="none" stroke="black" d="M964.39,-89.06C854.56,-88.59 543.26,-83.05 277.35,-36.16"/>
<polygon fill="black" stroke="black" points="278.27,-32.77 267.81,-34.46 277.03,-39.66 278.27,-32.77"/>
</g>
<!-- Read_com_File -->
<g id="node4" class="node">
<title>Read_com_File</title>
<polygon fill="none" stroke="black" points="386.25,-36 284,-36 284,0 386.25,0 386.25,-36"/>
<text text-anchor="middle" x="335.12" y="-12.95" font-family="Times New Roman,serif" font-size="14.00">Read_com_File</text>
</g>
<!-- Main_Body&#45;&gt;Read_com_File -->
<g id="edge3" class="edge">
<title>Main_Body&#45;&gt;Read_com_File</title>
<path fill="none" stroke="black" d="M964.08,-88.11C866.99,-85.44 615.64,-75.19 398.01,-36.33"/>
<polygon fill="black" stroke="black" points="398.64,-32.89 388.18,-34.55 397.39,-39.78 398.64,-32.89"/>
</g>
<!-- Refine_com_File -->
<g id="node5" class="node">
<title>Refine_com_File</title>
<polygon fill="none" stroke="black" points="514.38,-36 403.88,-36 403.88,0 514.38,0 514.38,-36"/>
<text text-anchor="middle" x="459.12" y="-12.95" font-family="Times New Roman,serif" font-size="14.00">Refine_com_File</text>
</g>
<!-- Main_Body&#45;&gt;Refine_com_File -->
<g id="edge4" class="edge">
<title>Main_Body&#45;&gt;Refine_com_File</title>
<path fill="none" stroke="black" d="M964.29,-86.52C882.81,-81.14 694.16,-66.51 525.98,-36.17"/>
<polygon fill="black" stroke="black" points="526.63,-32.73 516.16,-34.37 525.37,-39.61 526.63,-32.73"/>
</g>
<!-- Manage_Ionic_Information -->
<g id="node6" class="node">
<title>Manage_Ionic_Information</title>
<polygon fill="none" stroke="black" points="699.5,-36 532.75,-36 532.75,0 699.5,0 699.5,-36"/>
<text text-anchor="middle" x="616.12" y="-12.95" font-family="Times New Roman,serif" font-size="14.00">Manage_Ionic_Information</text>
</g>
<!-- Main_Body&#45;&gt;Manage_Ionic_Information -->
<g id="edge5" class="edge">
<title>Main_Body&#45;&gt;Manage_Ionic_Information</title>
<path fill="none" stroke="black" d="M964.42,-81.76C909.47,-71.97 808.19,-53.9 710.99,-36.33"/>
<polygon fill="black" stroke="black" points="711.73,-32.91 701.26,-34.57 710.48,-39.8 711.73,-32.91"/>
</g>
<!-- Prepare_Atoms_and_Bonds -->
<g id="node7" class="node">
<title>Prepare_Atoms_and_Bonds</title>
<polygon fill="none" stroke="black" points="886.25,-36 718,-36 718,0 886.25,0 886.25,-36"/>
<text text-anchor="middle" x="802.12" y="-12.95" font-family="Times New Roman,serif" font-size="14.00">Prepare_Atoms_and_Bonds</text>
</g>
<!-- Main_Body&#45;&gt;Prepare_Atoms_and_Bonds -->
<g id="edge6" class="edge">
<title>Main_Body&#45;&gt;Prepare_Atoms_and_Bonds</title>
<path fill="none" stroke="black" d="M964.04,-74.83C935.21,-64.89 896.15,-51.42 863.62,-40.21"/>
<polygon fill="black" stroke="black" points="864.89,-36.94 854.29,-36.99 862.61,-43.56 864.89,-36.94"/>
</g>
<!-- Prepare_Ions -->
<g id="node8" class="node">
<title>Prepare_Ions</title>
<polygon fill="none" stroke="black" points="991.75,-36 904.5,-36 904.5,0 991.75,0 991.75,-36"/>
<text text-anchor="middle" x="948.12" y="-12.95" font-family="Times New Roman,serif" font-size="14.00">Prepare_Ions</text>
</g>
<!-- Main_Body&#45;&gt;Prepare_Ions -->
<g id="edge7" class="edge">
<title>Main_Body&#45;&gt;Prepare_Ions</title>
<path fill="none" stroke="black" d="M991.04,-71.7C984.48,-63.64 976.54,-53.89 969.28,-44.98"/>
<polygon fill="black" stroke="black" points="972.04,-42.82 963.01,-37.28 966.61,-47.24 972.04,-42.82"/>
</g>
<!-- Build_Molecule -->
<g id="node9" class="node">
<title>Build_Molecule</title>
<polygon fill="none" stroke="black" points="1114.38,-36 1009.88,-36 1009.88,0 1114.38,0 1114.38,-36"/>
<text text-anchor="middle" x="1062.12" y="-12.95" font-family="Times New Roman,serif" font-size="14.00">Build_Molecule</text>
</g>
<!-- Main_Body&#45;&gt;Build_Molecule -->
<g id="edge8" class="edge">
<title>Main_Body&#45;&gt;Build_Molecule</title>
<path fill="none" stroke="black" d="M1019.21,-71.7C1025.77,-63.64 1033.71,-53.89 1040.97,-44.98"/>
<polygon fill="black" stroke="black" points="1043.64,-47.24 1047.24,-37.28 1038.21,-42.82 1043.64,-47.24"/>
</g>
<!-- Animate -->
<g id="node10" class="node">
<title>Animate</title>
<polygon fill="none" stroke="black" points="1195.75,-36 1132.5,-36 1132.5,0 1195.75,0 1195.75,-36"/>
<text text-anchor="middle" x="1164.12" y="-12.95" font-family="Times New Roman,serif" font-size="14.00">Animate</text>
</g>
<!-- Main_Body&#45;&gt;Animate -->
<g id="edge9" class="edge">
<title>Main_Body&#45;&gt;Animate</title>
<path fill="none" stroke="black" d="M1044.84,-71.52C1068.21,-61.23 1097.76,-48.22 1121.6,-37.72"/>
<polygon fill="black" stroke="black" points="1122.99,-40.94 1130.73,-33.7 1120.17,-34.53 1122.99,-40.94"/>
</g>
<!-- Export -->
<g id="node11" class="node">
<title>Export</title>
<polygon fill="none" stroke="black" points="1268.12,-36 1214.12,-36 1214.12,0 1268.12,0 1268.12,-36"/>
<text text-anchor="middle" x="1241.12" y="-12.95" font-family="Times New Roman,serif" font-size="14.00">Export</text>
</g>
<!-- Main_Body&#45;&gt;Export -->
<g id="edge10" class="edge">
<title>Main_Body&#45;&gt;Export</title>
<path fill="none" stroke="black" d="M1046.01,-80.46C1084.6,-71.9 1144.09,-57.41 1203.19,-36.38"/>
<polygon fill="black" stroke="black" points="1204.2,-39.74 1212.4,-33.04 1201.81,-33.16 1204.2,-39.74"/>
</g>
<!-- ExportForAnimation -->
<g id="node12" class="node">
<title>ExportForAnimation</title>
<polygon fill="none" stroke="black" points="1416.12,-36 1286.12,-36 1286.12,0 1416.12,0 1416.12,-36"/>
<text text-anchor="middle" x="1351.12" y="-12.95" font-family="Times New Roman,serif" font-size="14.00">ExportForAnimation</text>
</g>
<!-- Main_Body&#45;&gt;ExportForAnimation -->
<g id="edge11" class="edge">
<title>Main_Body&#45;&gt;ExportForAnimation</title>
<path fill="none" stroke="black" d="M1046.22,-81.43C1097.37,-71.92 1187.68,-54.81 1274.64,-36.49"/>
<polygon fill="black" stroke="black" points="1275.24,-39.94 1284.3,-34.45 1273.79,-33.09 1275.24,-39.94"/>
</g>
<!-- Highlight_Atoms -->
<g id="node13" class="node">
<title>Highlight_Atoms</title>
<polygon fill="none" stroke="black" points="1545.75,-36 1434.5,-36 1434.5,0 1545.75,0 1545.75,-36"/>
<text text-anchor="middle" x="1490.12" y="-12.95" font-family="Times New Roman,serif" font-size="14.00">Highlight_Atoms</text>
</g>
<!-- Main_Body&#45;&gt;Highlight_Atoms -->
<g id="edge12" class="edge">
<title>Main_Body&#45;&gt;Highlight_Atoms</title>
<path fill="none" stroke="black" d="M1046.24,-85.6C1119.85,-79.14 1279.12,-63.39 1423,-36.26"/>
<polygon fill="black" stroke="black" points="1423.56,-39.72 1432.72,-34.4 1422.25,-32.84 1423.56,-39.72"/>
</g>
<!-- Highlight_Bonds -->
<g id="node14" class="node">
<title>Highlight_Bonds</title>
<polygon fill="none" stroke="black" points="1672.62,-36 1563.62,-36 1563.62,0 1672.62,0 1672.62,-36"/>
<text text-anchor="middle" x="1618.12" y="-12.95" font-family="Times New Roman,serif" font-size="14.00">Highlight_Bonds</text>
</g>
<!-- Main_Body&#45;&gt;Highlight_Bonds -->
<g id="edge13" class="edge">
<title>Main_Body&#45;&gt;Highlight_Bonds</title>
<path fill="none" stroke="black" d="M1046.16,-87.4C1136.25,-83.37 1358.17,-70.72 1552.02,-36.4"/>
<polygon fill="black" stroke="black" points="1552.56,-39.86 1561.78,-34.65 1551.32,-32.97 1552.56,-39.86"/>
</g>
<!-- Manage_Export -->
<g id="node15" class="node">
<title>Manage_Export</title>
<polygon fill="none" stroke="black" points="1794,-36 1690.25,-36 1690.25,0 1794,0 1794,-36"/>
<text text-anchor="middle" x="1742.12" y="-12.95" font-family="Times New Roman,serif" font-size="14.00">Manage_Export</text>
</g>
<!-- Main_Body&#45;&gt;Manage_Export -->
<g id="edge14" class="edge">
<title>Main_Body&#45;&gt;Manage_Export</title>
<path fill="none" stroke="black" d="M1045.92,-88.61C1150.19,-87.02 1434.85,-78.94 1678.7,-36.44"/>
<polygon fill="black" stroke="black" points="1679.18,-39.9 1688.42,-34.72 1677.96,-33.01 1679.18,-39.9"/>
</g>
</g>
</svg>
