<?xml version="1.0" encoding="UTF-8" standalone="no"?>
<!DOCTYPE svg PUBLIC "-//W3C//DTD SVG 1.1//EN"
 "http://www.w3.org/Graphics/SVG/1.1/DTD/svg11.dtd">
<!-- Generated by graphviz version 12.2.1 (20241206.2353)
 -->
<!-- Title: G Pages: 1 -->
<svg width="1845pt" height="188pt"
 viewBox="0.00 0.00 1845.00 188.00" xmlns="http://www.w3.org/2000/svg" xmlns:xlink="http://www.w3.org/1999/xlink">
<g id="graph0" class="graph" transform="scale(1 1) rotate(0) translate(4 184)">
<title>G</title>
<polygon fill="white" stroke="none" points="-4,4 -4,-184 1841,-184 1841,4 -4,4"/>
<!-- Main_Body -->
<g id="node1" class="node">
<title>Main_Body</title>
<polygon fill="none" stroke="black" points="949,-108 867.75,-108 867.75,-72 949,-72 949,-108"/>
<text text-anchor="middle" x="908.38" y="-84.95" font-family="Times New Roman,serif" font-size="14.00">Main_Body</text>
</g>
<!-- Receive_Parameters -->
<g id="node2" class="node">
<title>Receive_Parameters</title>
<polygon fill="none" stroke="black" points="971.88,-36 844.88,-36 844.88,0 971.88,0 971.88,-36"/>
<text text-anchor="middle" x="908.38" y="-12.95" font-family="Times New Roman,serif" font-size="14.00">Receive_Parameters</text>
</g>
<!-- Main_Body&#45;&gt;Receive_Parameters -->
<g id="edge1" class="edge">
<title>Main_Body&#45;&gt;Receive_Parameters</title>
<path fill="none" stroke="black" d="M908.38,-71.7C908.38,-64.41 908.38,-55.73 908.38,-47.54"/>
<polygon fill="black" stroke="black" points="911.88,-47.62 908.38,-37.62 904.88,-47.62 911.88,-47.62"/>
</g>
<!-- Refine_Data -->
<g id="node3" class="node">
<title>Refine_Data</title>
<polygon fill="none" stroke="black" points="277.5,-36 193.25,-36 193.25,0 277.5,0 277.5,-36"/>
<text text-anchor="middle" x="235.38" y="-12.95" font-family="Times New Roman,serif" font-size="14.00">Refine_Data</text>
</g>
<!-- Main_Body&#45;&gt;Refine_Data -->
<g id="edge2" class="edge">
<title>Main_Body&#45;&gt;Refine_Data</title>
<path fill="none" stroke="black" d="M867.36,-81.47C848.01,-78.15 824.56,-74.45 803.38,-72 578.25,-45.99 514.36,-79.66 288.94,-36.21"/>
<polygon fill="black" stroke="black" points="289.71,-32.79 279.22,-34.3 288.36,-39.66 289.71,-32.79"/>
</g>
<!-- Parent_Relations -->
<g id="node4" class="node">
<title>Parent_Relations</title>
<polygon fill="none" stroke="black" points="826.5,-36 718.25,-36 718.25,0 826.5,0 826.5,-36"/>
<text text-anchor="middle" x="772.38" y="-12.95" font-family="Times New Roman,serif" font-size="14.00">Parent_Relations</text>
</g>
<!-- Main_Body&#45;&gt;Parent_Relations -->
<g id="edge3" class="edge">
<title>Main_Body&#45;&gt;Parent_Relations</title>
<path fill="none" stroke="black" d="M874.41,-71.52C856.75,-62.43 834.97,-51.22 816.07,-41.49"/>
<polygon fill="black" stroke="black" points="817.75,-38.42 807.26,-36.95 814.55,-44.64 817.75,-38.42"/>
</g>
<!-- Refine_Elements -->
<g id="node5" class="node">
<title>Refine_Elements</title>
<polygon fill="none" stroke="black" points="405.25,-36 295.5,-36 295.5,0 405.25,0 405.25,-36"/>
<text text-anchor="middle" x="350.38" y="-12.95" font-family="Times New Roman,serif" font-size="14.00">Refine_Elements</text>
</g>
<!-- Main_Body&#45;&gt;Refine_Elements -->
<g id="edge4" class="edge">
<title>Main_Body&#45;&gt;Refine_Elements</title>
<path fill="none" stroke="black" d="M867.33,-81.69C847.97,-78.41 824.53,-74.69 803.38,-72 634.75,-50.57 587.3,-65.73 416.56,-36.2"/>
<polygon fill="black" stroke="black" points="417.35,-32.79 406.89,-34.5 416.14,-39.68 417.35,-32.79"/>
</g>
<!-- Create_Materials -->
<g id="node6" class="node">
<title>Create_Materials</title>
<polygon fill="none" stroke="black" points="533.25,-36 423.5,-36 423.5,0 533.25,0 533.25,-36"/>
<text text-anchor="middle" x="478.38" y="-12.95" font-family="Times New Roman,serif" font-size="14.00">Create_Materials</text>
</g>
<!-- Main_Body&#45;&gt;Create_Materials -->
<g id="edge5" class="edge">
<title>Main_Body&#45;&gt;Create_Materials</title>
<path fill="none" stroke="black" d="M867.27,-82.12C847.9,-78.93 824.47,-75.16 803.38,-72 691.08,-55.17 659.1,-58.83 544.42,-36.27"/>
<polygon fill="black" stroke="black" points="545.41,-32.9 534.92,-34.38 544.04,-39.77 545.41,-32.9"/>
</g>
<!-- Ions -->
<g id="node7" class="node">
<title>Ions</title>
<polygon fill="none" stroke="black" points="605.38,-36 551.38,-36 551.38,0 605.38,0 605.38,-36"/>
<text text-anchor="middle" x="578.38" y="-12.95" font-family="Times New Roman,serif" font-size="14.00">Ions</text>
</g>
<!-- Main_Body&#45;&gt;Ions -->
<g id="edge6" class="edge">
<title>Main_Body&#45;&gt;Ions</title>
<path fill="none" stroke="black" d="M867.47,-82.24C798.86,-70.82 664.08,-48 616.55,-35.88"/>
<polygon fill="black" stroke="black" points="617.62,-32.54 607.05,-33.17 615.71,-39.27 617.62,-32.54"/>
</g>
<!-- Raw_Parameters -->
<g id="node8" class="node">
<title>Raw_Parameters</title>
<polygon fill="none" stroke="black" points="1098.5,-36 990.25,-36 990.25,0 1098.5,0 1098.5,-36"/>
<text text-anchor="middle" x="1044.38" y="-12.95" font-family="Times New Roman,serif" font-size="14.00">Raw_Parameters</text>
</g>
<!-- Main_Body&#45;&gt;Raw_Parameters -->
<g id="edge7" class="edge">
<title>Main_Body&#45;&gt;Raw_Parameters</title>
<path fill="none" stroke="black" d="M942.34,-71.52C960,-62.43 981.78,-51.22 1000.68,-41.49"/>
<polygon fill="black" stroke="black" points="1002.2,-44.64 1009.49,-36.95 999,-38.42 1002.2,-44.64"/>
</g>
<!-- XyzReader -->
<g id="node9" class="node">
<title>XyzReader</title>
<polygon fill="none" stroke="black" points="699.75,-36 623,-36 623,0 699.75,0 699.75,-36"/>
<text text-anchor="middle" x="661.38" y="-12.95" font-family="Times New Roman,serif" font-size="14.00">XyzReader</text>
</g>
<!-- Main_Body&#45;&gt;XyzReader -->
<g id="edge8" class="edge">
<title>Main_Body&#45;&gt;XyzReader</title>
<path fill="none" stroke="black" d="M867.32,-79.09C829.18,-69.65 770.61,-54.59 710.84,-36.32"/>
<polygon fill="black" stroke="black" points="712.09,-33.05 701.5,-33.45 710.03,-39.74 712.09,-33.05"/>
</g>
<!-- Clear_Transforms -->
<g id="node10" class="node">
<title>Clear_Transforms</title>
<polygon fill="none" stroke="black" points="1231.88,-36 1116.88,-36 1116.88,0 1231.88,0 1231.88,-36"/>
<text text-anchor="middle" x="1174.38" y="-12.95" font-family="Times New Roman,serif" font-size="14.00">Clear_Transforms</text>
</g>
<!-- Main_Body&#45;&gt;Clear_Transforms -->
<g id="edge9" class="edge">
<title>Main_Body&#45;&gt;Clear_Transforms</title>
<path fill="none" stroke="black" d="M949.37,-77.89C956.69,-75.92 964.26,-73.89 971.38,-72 1016.01,-60.15 1066.22,-47.04 1105.54,-36.82"/>
<polygon fill="black" stroke="black" points="1106.33,-40.23 1115.13,-34.33 1104.57,-33.46 1106.33,-40.23"/>
</g>
<!-- Animate -->
<g id="node11" class="node">
<title>Animate</title>
<polygon fill="none" stroke="black" points="1468,-36 1404.75,-36 1404.75,0 1468,0 1468,-36"/>
<text text-anchor="middle" x="1436.38" y="-12.95" font-family="Times New Roman,serif" font-size="14.00">Animate</text>
</g>
<!-- Main_Body&#45;&gt;Animate -->
<g id="edge10" class="edge">
<title>Main_Body&#45;&gt;Animate</title>
<path fill="none" stroke="black" d="M949.48,-76.78C956.73,-74.95 964.23,-73.26 971.38,-72 1154,-39.87 1209.46,-79.16 1393.32,-36.01"/>
<polygon fill="black" stroke="black" points="1394.08,-39.42 1402.99,-33.68 1392.45,-32.61 1394.08,-39.42"/>
</g>
<!-- Export_Data -->
<g id="node12" class="node">
<title>Export_Data</title>
<polygon fill="none" stroke="black" points="1588.88,-36 1503.88,-36 1503.88,0 1588.88,0 1588.88,-36"/>
<text text-anchor="middle" x="1546.38" y="-12.95" font-family="Times New Roman,serif" font-size="14.00">Export_Data</text>
</g>
<!-- Main_Body&#45;&gt;Export_Data -->
<g id="edge11" class="edge">
<title>Main_Body&#45;&gt;Export_Data</title>
<path fill="none" stroke="black" d="M949.46,-76.68C956.71,-74.86 964.22,-73.2 971.38,-72 1198,-34.01 1264.3,-79.8 1492.46,-36.3"/>
<polygon fill="black" stroke="black" points="1492.82,-39.79 1501.97,-34.45 1491.48,-32.92 1492.82,-39.79"/>
</g>
<!-- Instantiate_Molecules -->
<g id="node13" class="node">
<title>Instantiate_Molecules</title>
<polygon fill="none" stroke="black" points="1386.38,-36 1250.38,-36 1250.38,0 1386.38,0 1386.38,-36"/>
<text text-anchor="middle" x="1318.38" y="-12.95" font-family="Times New Roman,serif" font-size="14.00">Instantiate_Molecules</text>
</g>
<!-- Main_Body&#45;&gt;Instantiate_Molecules -->
<g id="edge12" class="edge">
<title>Main_Body&#45;&gt;Instantiate_Molecules</title>
<path fill="none" stroke="black" d="M949.2,-77.15C956.54,-75.26 964.16,-73.45 971.38,-72 1086.59,-48.88 1120.21,-56.58 1239.01,-36.32"/>
<polygon fill="black" stroke="black" points="1239.26,-39.83 1248.51,-34.67 1238.06,-32.94 1239.26,-39.83"/>
</g>
<!-- AtomHighlighter -->
<g id="node14" class="node">
<title>AtomHighlighter</title>
<polygon fill="none" stroke="black" points="1716.25,-36 1606.5,-36 1606.5,0 1716.25,0 1716.25,-36"/>
<text text-anchor="middle" x="1661.38" y="-12.95" font-family="Times New Roman,serif" font-size="14.00">AtomHighlighter</text>
</g>
<!-- Main_Body&#45;&gt;AtomHighlighter -->
<g id="edge13" class="edge">
<title>Main_Body&#45;&gt;AtomHighlighter</title>
<path fill="none" stroke="black" d="M949.45,-76.61C956.7,-74.8 964.22,-73.16 971.38,-72 1243.28,-27.99 1320.8,-79.21 1595.1,-36.35"/>
<polygon fill="black" stroke="black" points="1595.38,-39.85 1604.71,-34.82 1594.28,-32.93 1595.38,-39.85"/>
</g>
<!-- Animate&#45;&gt;Animate -->
<g id="edge28" class="edge">
<title>Animate&#45;&gt;Animate</title>
<path fill="none" stroke="black" d="M1468.35,-31.49C1478.24,-31.21 1486,-26.72 1486,-18 1486,-12.96 1483.41,-9.33 1479.31,-7.11"/>
<polygon fill="black" stroke="black" points="1480.36,-3.77 1469.83,-4.86 1478.75,-10.58 1480.36,-3.77"/>
</g>
<!-- Obtain_Coords_Connect -->
<g id="node15" class="node">
<title>Obtain_Coords_Connect</title>
<polygon fill="none" stroke="black" points="942.5,-180 792.25,-180 792.25,-144 942.5,-144 942.5,-180"/>
<text text-anchor="middle" x="867.38" y="-156.95" font-family="Times New Roman,serif" font-size="14.00">Obtain_Coords_Connect</text>
</g>
<!-- Read_com_File -->
<g id="node16" class="node">
<title>Read_com_File</title>
<polygon fill="none" stroke="black" points="1082.5,-108 980.25,-108 980.25,-72 1082.5,-72 1082.5,-108"/>
<text text-anchor="middle" x="1031.38" y="-84.95" font-family="Times New Roman,serif" font-size="14.00">Read_com_File</text>
</g>
<!-- Obtain_Coords_Connect&#45;&gt;Read_com_File -->
<g id="edge14" class="edge">
<title>Obtain_Coords_Connect&#45;&gt;Read_com_File</title>
<path fill="none" stroke="black" d="M908.34,-143.52C930.14,-134.21 957.16,-122.68 980.32,-112.79"/>
<polygon fill="black" stroke="black" points="981.44,-116.12 989.26,-108.98 978.69,-109.68 981.44,-116.12"/>
</g>
<!-- Read_xyz_File -->
<g id="node17" class="node">
<title>Read_xyz_File</title>
<polygon fill="none" stroke="black" points="794.25,-108 696.5,-108 696.5,-72 794.25,-72 794.25,-108"/>
<text text-anchor="middle" x="745.38" y="-84.95" font-family="Times New Roman,serif" font-size="14.00">Read_xyz_File</text>
</g>
<!-- Obtain_Coords_Connect&#45;&gt;Read_xyz_File -->
<g id="edge15" class="edge">
<title>Obtain_Coords_Connect&#45;&gt;Read_xyz_File</title>
<path fill="none" stroke="black" d="M836.9,-143.52C821.21,-134.51 801.88,-123.42 785.04,-113.76"/>
<polygon fill="black" stroke="black" points="787.19,-110.95 776.77,-109.01 783.7,-117.03 787.19,-110.95"/>
</g>
<!-- Read_com_File&#45;&gt;Raw_Parameters -->
<g id="edge16" class="edge">
<title>Read_com_File&#45;&gt;Raw_Parameters</title>
<path fill="none" stroke="black" d="M1034.59,-71.7C1035.96,-64.32 1037.59,-55.52 1039.13,-47.25"/>
<polygon fill="black" stroke="black" points="1042.54,-48.06 1040.92,-37.59 1035.65,-46.79 1042.54,-48.06"/>
</g>
<!-- Read_xyz_File&#45;&gt;XyzReader -->
<g id="edge17" class="edge">
<title>Read_xyz_File&#45;&gt;XyzReader</title>
<path fill="none" stroke="black" d="M724.61,-71.7C714.41,-63.2 701.95,-52.81 690.79,-43.51"/>
<polygon fill="black" stroke="black" points="693.28,-41.03 683.35,-37.32 688.8,-46.41 693.28,-41.03"/>
</g>
<!-- Refine_com_File -->
<g id="node18" class="node">
<title>Refine_com_File</title>
<polygon fill="none" stroke="black" points="295.62,-108 185.12,-108 185.12,-72 295.62,-72 295.62,-108"/>
<text text-anchor="middle" x="240.38" y="-84.95" font-family="Times New Roman,serif" font-size="14.00">Refine_com_File</text>
</g>
<!-- Refine_com_File&#45;&gt;Refine_Data -->
<g id="edge18" class="edge">
<title>Refine_com_File&#45;&gt;Refine_Data</title>
<path fill="none" stroke="black" d="M239.14,-71.7C238.62,-64.41 238,-55.73 237.41,-47.54"/>
<polygon fill="black" stroke="black" points="240.91,-47.34 236.7,-37.61 233.93,-47.84 240.91,-47.34"/>
</g>
<!-- Manage_Ionic_Information -->
<g id="node19" class="node">
<title>Manage_Ionic_Information</title>
<polygon fill="none" stroke="black" points="166.75,-108 0,-108 0,-72 166.75,-72 166.75,-108"/>
<text text-anchor="middle" x="83.38" y="-84.95" font-family="Times New Roman,serif" font-size="14.00">Manage_Ionic_Information</text>
</g>
<!-- Manage_Ionic_Information&#45;&gt;Refine_Data -->
<g id="edge19" class="edge">
<title>Manage_Ionic_Information&#45;&gt;Refine_Data</title>
<path fill="none" stroke="black" d="M121.34,-71.52C141.27,-62.34 165.91,-50.99 187.18,-41.2"/>
<polygon fill="black" stroke="black" points="188.64,-44.38 196.26,-37.01 185.71,-38.02 188.64,-44.38"/>
</g>
<!-- Prepare_Atoms_and_Bonds -->
<g id="node20" class="node">
<title>Prepare_Atoms_and_Bonds</title>
<polygon fill="none" stroke="black" points="501.5,-108 333.25,-108 333.25,-72 501.5,-72 501.5,-108"/>
<text text-anchor="middle" x="417.38" y="-84.95" font-family="Times New Roman,serif" font-size="14.00">Prepare_Atoms_and_Bonds</text>
</g>
<!-- Prepare_Atoms_and_Bonds&#45;&gt;Refine_Elements -->
<g id="edge20" class="edge">
<title>Prepare_Atoms_and_Bonds&#45;&gt;Refine_Elements</title>
<path fill="none" stroke="black" d="M400.81,-71.7C392.94,-63.47 383.38,-53.48 374.71,-44.42"/>
<polygon fill="black" stroke="black" points="377.24,-42 367.79,-37.2 372.18,-46.84 377.24,-42"/>
</g>
<!-- Prepare_Atoms_and_Bonds&#45;&gt;Create_Materials -->
<g id="edge21" class="edge">
<title>Prepare_Atoms_and_Bonds&#45;&gt;Create_Materials</title>
<path fill="none" stroke="black" d="M432.45,-71.7C439.55,-63.56 448.15,-53.69 455.98,-44.7"/>
<polygon fill="black" stroke="black" points="458.54,-47.08 462.48,-37.25 453.27,-42.49 458.54,-47.08"/>
</g>
<!-- Prepare_Ions -->
<g id="node21" class="node">
<title>Prepare_Ions</title>
<polygon fill="none" stroke="black" points="617,-108 529.75,-108 529.75,-72 617,-72 617,-108"/>
<text text-anchor="middle" x="573.38" y="-84.95" font-family="Times New Roman,serif" font-size="14.00">Prepare_Ions</text>
</g>
<!-- Prepare_Ions&#45;&gt;Refine_Elements -->
<g id="edge22" class="edge">
<title>Prepare_Ions&#45;&gt;Refine_Elements</title>
<path fill="none" stroke="black" d="M529.32,-75.17C496.97,-65.02 452.49,-51.05 415.97,-39.59"/>
<polygon fill="black" stroke="black" points="417.44,-36.38 406.85,-36.73 415.35,-43.06 417.44,-36.38"/>
</g>
<!-- Prepare_Ions&#45;&gt;Ions -->
<g id="edge23" class="edge">
<title>Prepare_Ions&#45;&gt;Ions</title>
<path fill="none" stroke="black" d="M574.61,-71.7C575.13,-64.41 575.75,-55.73 576.34,-47.54"/>
<polygon fill="black" stroke="black" points="579.82,-47.84 577.05,-37.61 572.84,-47.34 579.82,-47.84"/>
</g>
<!-- Build_Molecule -->
<g id="node22" class="node">
<title>Build_Molecule</title>
<polygon fill="none" stroke="black" points="1370.62,-108 1266.12,-108 1266.12,-72 1370.62,-72 1370.62,-108"/>
<text text-anchor="middle" x="1318.38" y="-84.95" font-family="Times New Roman,serif" font-size="14.00">Build_Molecule</text>
</g>
<!-- Build_Molecule&#45;&gt;Instantiate_Molecules -->
<g id="edge24" class="edge">
<title>Build_Molecule&#45;&gt;Instantiate_Molecules</title>
<path fill="none" stroke="black" d="M1318.38,-71.7C1318.38,-64.41 1318.38,-55.73 1318.38,-47.54"/>
<polygon fill="black" stroke="black" points="1321.88,-47.62 1318.38,-37.62 1314.88,-47.62 1321.88,-47.62"/>
</g>
<!-- Reset_Transforms -->
<g id="node23" class="node">
<title>Reset_Transforms</title>
<polygon fill="none" stroke="black" points="1232.25,-108 1116.5,-108 1116.5,-72 1232.25,-72 1232.25,-108"/>
<text text-anchor="middle" x="1174.38" y="-84.95" font-family="Times New Roman,serif" font-size="14.00">Reset_Transforms</text>
</g>
<!-- Reset_Transforms&#45;&gt;Clear_Transforms -->
<g id="edge25" class="edge">
<title>Reset_Transforms&#45;&gt;Clear_Transforms</title>
<path fill="none" stroke="black" d="M1174.38,-71.7C1174.38,-64.41 1174.38,-55.73 1174.38,-47.54"/>
<polygon fill="black" stroke="black" points="1177.88,-47.62 1174.38,-37.62 1170.88,-47.62 1177.88,-47.62"/>
</g>
<!-- Highlight_Atoms -->
<g id="node24" class="node">
<title>Highlight_Atoms</title>
<polygon fill="none" stroke="black" points="1837,-108 1725.75,-108 1725.75,-72 1837,-72 1837,-108"/>
<text text-anchor="middle" x="1781.38" y="-84.95" font-family="Times New Roman,serif" font-size="14.00">Highlight_Atoms</text>
</g>
<!-- Highlight_Atoms&#45;&gt;AtomHighlighter -->
<g id="edge26" class="edge">
<title>Highlight_Atoms&#45;&gt;AtomHighlighter</title>
<path fill="none" stroke="black" d="M1751.4,-71.52C1736.11,-62.6 1717.31,-51.63 1700.86,-42.03"/>
<polygon fill="black" stroke="black" points="1702.67,-39.04 1692.27,-37.02 1699.15,-45.09 1702.67,-39.04"/>
</g>
<!-- Highlight_Bonds -->
<g id="node25" class="node">
<title>Highlight_Bonds</title>
<polygon fill="none" stroke="black" points="1707.88,-108 1598.88,-108 1598.88,-72 1707.88,-72 1707.88,-108"/>
<text text-anchor="middle" x="1653.38" y="-84.95" font-family="Times New Roman,serif" font-size="14.00">Highlight_Bonds</text>
</g>
<!-- Highlight_Bonds&#45;&gt;AtomHighlighter -->
<g id="edge27" class="edge">
<title>Highlight_Bonds&#45;&gt;AtomHighlighter</title>
<path fill="none" stroke="black" d="M1655.35,-71.7C1656.19,-64.41 1657.18,-55.73 1658.11,-47.54"/>
<polygon fill="black" stroke="black" points="1661.59,-47.94 1659.25,-37.61 1654.64,-47.15 1661.59,-47.94"/>
</g>
<!-- Export -->
<g id="node26" class="node">
<title>Export</title>
<polygon fill="none" stroke="black" points="1573.38,-108 1519.38,-108 1519.38,-72 1573.38,-72 1573.38,-108"/>
<text text-anchor="middle" x="1546.38" y="-84.95" font-family="Times New Roman,serif" font-size="14.00">Export</text>
</g>
<!-- Export&#45;&gt;Export_Data -->
<g id="edge29" class="edge">
<title>Export&#45;&gt;Export_Data</title>
<path fill="none" stroke="black" d="M1546.38,-71.7C1546.38,-64.41 1546.38,-55.73 1546.38,-47.54"/>
<polygon fill="black" stroke="black" points="1549.88,-47.62 1546.38,-37.62 1542.88,-47.62 1549.88,-47.62"/>
</g>
<!-- Manage_Export -->
<g id="node27" class="node">
<title>Manage_Export</title>
<polygon fill="none" stroke="black" points="1497.25,-108 1393.5,-108 1393.5,-72 1497.25,-72 1497.25,-108"/>
<text text-anchor="middle" x="1445.38" y="-84.95" font-family="Times New Roman,serif" font-size="14.00">Manage_Export</text>
</g>
<!-- Manage_Export&#45;&gt;Animate -->
<g id="edge30" class="edge">
<title>Manage_Export&#45;&gt;Animate</title>
<path fill="none" stroke="black" d="M1443.15,-71.7C1442.2,-64.32 1441.07,-55.52 1440.01,-47.25"/>
<polygon fill="black" stroke="black" points="1443.51,-47.08 1438.77,-37.61 1436.57,-47.97 1443.51,-47.08"/>
</g>
<!-- Manage_Export&#45;&gt;Export_Data -->
<g id="edge31" class="edge">
<title>Manage_Export&#45;&gt;Export_Data</title>
<path fill="none" stroke="black" d="M1470.6,-71.52C1483.23,-62.76 1498.7,-52.04 1512.36,-42.58"/>
<polygon fill="black" stroke="black" points="1514,-45.7 1520.23,-37.12 1510.01,-39.94 1514,-45.7"/>
</g>
</g>
</svg>
