<?xml version="1.0" encoding="UTF-8" standalone="no"?>
<!DOCTYPE svg PUBLIC "-//W3C//DTD SVG 1.1//EN"
 "http://www.w3.org/Graphics/SVG/1.1/DTD/svg11.dtd">
<!-- Generated by graphviz version 12.2.1 (20241206.2353)
 -->
<!-- Title: G Pages: 1 -->
<svg width="1536pt" height="221pt"
 viewBox="0.00 0.00 1535.88 221.00" xmlns="http://www.w3.org/2000/svg" xmlns:xlink="http://www.w3.org/1999/xlink">
<g id="graph0" class="graph" transform="scale(1 1) rotate(0) translate(4 217)">
<title>G</title>
<polygon fill="white" stroke="none" points="-4,4 -4,-217 1531.88,-217 1531.88,4 -4,4"/>
<!-- GaussianToBlenderApp -->
<g id="node1" class="node">
<title>GaussianToBlenderApp</title>
<polygon fill="none" stroke="black" points="206.12,-124.5 60.38,-124.5 60.38,-88.5 206.12,-88.5 206.12,-124.5"/>
<text text-anchor="middle" x="133.25" y="-101.45" font-family="Times New Roman,serif" font-size="14.00">GaussianToBlenderApp</text>
</g>
<!-- convert_manager -->
<g id="node2" class="node">
<title>convert_manager</title>
<polygon fill="none" stroke="black" points="1059,-213 891.5,-213 891.5,-177 1059,-177 1059,-213"/>
<text text-anchor="middle" x="975.25" y="-189.95" font-family="Times New Roman,serif" font-size="14.00">convert_manager(exec_loc)</text>
</g>
<!-- individual_convert -->
<g id="node3" class="node">
<title>individual_convert</title>
<polygon fill="none" stroke="black" points="442.38,-124.5 304.12,-124.5 304.12,-88.5 442.38,-88.5 442.38,-124.5"/>
<text text-anchor="middle" x="373.25" y="-101.45" font-family="Times New Roman,serif" font-size="14.00">individual_convert(...)</text>
</g>
<!-- convert_manager&#45;&gt;individual_convert -->
<g id="edge3" class="edge">
<title>convert_manager&#45;&gt;individual_convert</title>
<path fill="none" stroke="black" d="M891.15,-192.39C723.08,-188.75 360.09,-178.65 341.5,-159 334.35,-151.45 337.48,-142.03 344.01,-133.33"/>
<polygon fill="black" stroke="black" points="346.41,-135.9 350.41,-126.09 341.16,-131.26 346.41,-135.9"/>
<text text-anchor="middle" x="353.88" y="-145.7" font-family="Times New Roman,serif" font-size="14.00">calls</text>
</g>
<!-- assign_ionic_params -->
<g id="node4" class="node">
<title>assign_ionic_params</title>
<polygon fill="none" stroke="black" points="1224.75,-124.5 1085.75,-124.5 1085.75,-88.5 1224.75,-88.5 1224.75,-124.5"/>
<text text-anchor="middle" x="1155.25" y="-101.45" font-family="Times New Roman,serif" font-size="14.00">assign_ionic_params()</text>
</g>
<!-- convert_manager&#45;&gt;assign_ionic_params -->
<g id="edge2" class="edge">
<title>convert_manager&#45;&gt;assign_ionic_params</title>
<path fill="none" stroke="black" d="M1004.94,-176.66C1023.28,-166.23 1047.44,-152.99 1069.5,-142.5 1079.09,-137.94 1089.44,-133.4 1099.52,-129.18"/>
<polygon fill="black" stroke="black" points="1100.58,-132.53 1108.49,-125.48 1097.91,-126.06 1100.58,-132.53"/>
<text text-anchor="middle" x="1081.88" y="-145.7" font-family="Times New Roman,serif" font-size="14.00">calls</text>
</g>
<!-- exceptions_test_passed -->
<g id="node7" class="node">
<title>exceptions_test_passed</title>
<polygon fill="none" stroke="black" points="1527.88,-124.5 1242.62,-124.5 1242.62,-88.5 1527.88,-88.5 1527.88,-124.5"/>
<text text-anchor="middle" x="1385.25" y="-101.45" font-family="Times New Roman,serif" font-size="14.00">exceptions_test_passed(b_path, i_names, o_path)</text>
</g>
<!-- convert_manager&#45;&gt;exceptions_test_passed -->
<g id="edge1" class="edge">
<title>convert_manager&#45;&gt;exceptions_test_passed</title>
<path fill="none" stroke="black" d="M1059.36,-186.71C1110.16,-181.29 1175.94,-172.47 1233.25,-159 1266.2,-151.26 1302.11,-139.27 1330.74,-128.8"/>
<polygon fill="black" stroke="black" points="1331.76,-132.16 1339.92,-125.4 1329.33,-125.59 1331.76,-132.16"/>
<text text-anchor="middle" x="1300.77" y="-145.7" font-family="Times New Roman,serif" font-size="14.00">calls</text>
</g>
<!-- individual_convert&#45;&gt;convert_manager -->
<g id="edge10" class="edge">
<title>individual_convert&#45;&gt;convert_manager</title>
<path fill="none" stroke="black" d="M373.86,-124.67C375.26,-136.28 379.15,-150.93 389.5,-159 427.14,-188.36 723.66,-193.49 879.8,-194.13"/>
<polygon fill="black" stroke="black" points="879.73,-197.63 889.74,-194.17 879.75,-190.63 879.73,-197.63"/>
<text text-anchor="middle" x="533.88" y="-145.7" font-family="Times New Roman,serif" font-size="14.00">requires exec_loc, b_path, i_type, i_path, i_name, ...</text>
</g>
<!-- overwrite_animation_frames -->
<g id="node5" class="node">
<title>overwrite_animation_frames</title>
<polygon fill="none" stroke="black" points="765.25,-36 539.25,-36 539.25,0 765.25,0 765.25,-36"/>
<text text-anchor="middle" x="652.25" y="-12.95" font-family="Times New Roman,serif" font-size="14.00">overwrite_animation_frames(is_anim)</text>
</g>
<!-- individual_convert&#45;&gt;overwrite_animation_frames -->
<g id="edge4" class="edge">
<title>individual_convert&#45;&gt;overwrite_animation_frames</title>
<path fill="none" stroke="black" d="M442.79,-103.62C508.66,-100.52 601.64,-92.3 630.25,-70.5 637.86,-64.7 642.87,-55.74 646.16,-46.92"/>
<polygon fill="black" stroke="black" points="649.46,-48.09 649.02,-37.51 642.76,-46.05 649.46,-48.09"/>
<text text-anchor="middle" x="655.45" y="-57.2" font-family="Times New Roman,serif" font-size="14.00">calls</text>
</g>
<!-- overwrite_parameters_script -->
<g id="node6" class="node">
<title>overwrite_parameters_script</title>
<polygon fill="none" stroke="black" points="454,-36 262.5,-36 262.5,0 454,0 454,-36"/>
<text text-anchor="middle" x="358.25" y="-12.95" font-family="Times New Roman,serif" font-size="14.00">overwrite_parameters_script(...)</text>
</g>
<!-- individual_convert&#45;&gt;overwrite_parameters_script -->
<g id="edge5" class="edge">
<title>individual_convert&#45;&gt;overwrite_parameters_script</title>
<path fill="none" stroke="black" d="M328.77,-88.1C321.87,-83.43 315.66,-77.63 311.5,-70.5 305.93,-60.93 310.34,-51.61 318.31,-43.59"/>
<polygon fill="black" stroke="black" points="320.33,-46.46 325.67,-37.31 315.79,-41.14 320.33,-46.46"/>
<text text-anchor="middle" x="323.88" y="-57.2" font-family="Times New Roman,serif" font-size="14.00">calls</text>
</g>
<!-- assign_ionic_params&#45;&gt;convert_manager -->
<g id="edge6" class="edge">
<title>assign_ionic_params&#45;&gt;convert_manager</title>
<path fill="none" stroke="black" d="M1138.55,-124.95C1127.03,-136.09 1110.85,-150.07 1094.25,-159 1084.44,-164.28 1073.73,-168.86 1062.89,-172.8"/>
<polygon fill="black" stroke="black" points="1061.78,-169.48 1053.46,-176.04 1064.05,-176.1 1061.78,-169.48"/>
<text text-anchor="middle" x="1173.7" y="-145.7" font-family="Times New Roman,serif" font-size="14.00">returns ionic params</text>
</g>
<!-- overwrite_animation_frames&#45;&gt;convert_manager -->
<g id="edge7" class="edge">
<title>overwrite_animation_frames&#45;&gt;convert_manager</title>
<path fill="none" stroke="black" d="M760.8,-36.44C803.35,-46.82 851.03,-63.12 889.25,-88.5 919.74,-108.74 944.81,-143.1 959.87,-167.09"/>
<polygon fill="black" stroke="black" points="956.72,-168.65 964.9,-175.38 962.7,-165.01 956.72,-168.65"/>
<text text-anchor="middle" x="1001.85" y="-101.45" font-family="Times New Roman,serif" font-size="14.00">provides animation frames</text>
</g>
<!-- overwrite_animation_frames&#45;&gt;individual_convert -->
<g id="edge11" class="edge">
<title>overwrite_animation_frames&#45;&gt;individual_convert</title>
<path fill="none" stroke="black" d="M577.19,-36.44C562.91,-41.15 548.41,-46.95 535.5,-54 525.61,-59.4 526.27,-65.35 516.25,-70.5 497.07,-80.35 475.01,-87.5 454.04,-92.67"/>
<polygon fill="black" stroke="black" points="453.29,-89.26 444.34,-94.93 454.88,-96.07 453.29,-89.26"/>
<text text-anchor="middle" x="580.88" y="-57.2" font-family="Times New Roman,serif" font-size="14.00">requires is_anim</text>
</g>
<!-- overwrite_parameters_script&#45;&gt;convert_manager -->
<g id="edge8" class="edge">
<title>overwrite_parameters_script&#45;&gt;convert_manager</title>
<path fill="none" stroke="black" d="M454.14,-28.41C544.93,-37.51 668.03,-50.44 672.25,-54 697.16,-75.03 669.01,-101.9 692.5,-124.5 719.3,-150.28 808.69,-169.38 879.87,-180.97"/>
<polygon fill="black" stroke="black" points="879.21,-184.41 889.63,-182.53 880.31,-177.5 879.21,-184.41"/>
<text text-anchor="middle" x="788.88" y="-101.45" font-family="Times New Roman,serif" font-size="14.00">provides parameters for conversion</text>
</g>
<!-- overwrite_parameters_script&#45;&gt;individual_convert -->
<g id="edge12" class="edge">
<title>overwrite_parameters_script&#45;&gt;individual_convert</title>
<path fill="none" stroke="black" d="M357.18,-36.33C356.92,-46.4 357.23,-59.28 359.5,-70.5 359.96,-72.8 360.57,-75.14 361.27,-77.47"/>
<polygon fill="black" stroke="black" points="357.87,-78.38 364.51,-86.63 364.47,-76.04 357.87,-78.38"/>
<text text-anchor="middle" x="437.88" y="-57.2" font-family="Times New Roman,serif" font-size="14.00">requires multiple parameters</text>
</g>
<!-- exceptions_test_passed&#45;&gt;convert_manager -->
<g id="edge9" class="edge">
<title>exceptions_test_passed&#45;&gt;convert_manager</title>
<path fill="none" stroke="black" d="M1367.9,-124.96C1355.07,-136.71 1336.54,-151.4 1317.25,-159 1273.8,-176.11 1155.69,-185.38 1070.43,-190"/>
<polygon fill="black" stroke="black" points="1070.47,-186.49 1060.66,-190.52 1070.84,-193.48 1070.47,-186.49"/>
<text text-anchor="middle" x="1436.37" y="-145.7" font-family="Times New Roman,serif" font-size="14.00">requires b_path, i_names, o_path</text>
</g>
<!-- help_single_convert -->
<g id="node8" class="node">
<title>help_single_convert</title>
<polygon fill="none" stroke="black" points="134.5,-213 0,-213 0,-177 134.5,-177 134.5,-213"/>
<text text-anchor="middle" x="67.25" y="-189.95" font-family="Times New Roman,serif" font-size="14.00">help_single_convert()</text>
</g>
<!-- help_single_convert&#45;&gt;GaussianToBlenderApp -->
<g id="edge13" class="edge">
<title>help_single_convert&#45;&gt;GaussianToBlenderApp</title>
<path fill="none" stroke="black" d="M80.29,-176.91C89.63,-164.67 102.39,-147.95 113.04,-133.99"/>
<polygon fill="black" stroke="black" points="115.81,-136.13 119.09,-126.05 110.25,-131.88 115.81,-136.13"/>
<text text-anchor="middle" x="148.16" y="-145.7" font-family="Times New Roman,serif" font-size="14.00">triggers tutorial</text>
</g>
<!-- help_animation_convert -->
<g id="node9" class="node">
<title>help_animation_convert</title>
<polygon fill="none" stroke="black" points="309.75,-213 152.75,-213 152.75,-177 309.75,-177 309.75,-213"/>
<text text-anchor="middle" x="231.25" y="-189.95" font-family="Times New Roman,serif" font-size="14.00">help_animation_convert()</text>
</g>
<!-- help_animation_convert&#45;&gt;GaussianToBlenderApp -->
<g id="edge14" class="edge">
<title>help_animation_convert&#45;&gt;GaussianToBlenderApp</title>
<path fill="none" stroke="black" d="M221.51,-176.79C214.82,-166.03 205.2,-152.39 194.25,-142.5 189.66,-138.36 184.5,-134.49 179.18,-130.94"/>
<polygon fill="black" stroke="black" points="181.13,-128.03 170.79,-125.71 177.43,-133.97 181.13,-128.03"/>
<text text-anchor="middle" x="250.32" y="-145.7" font-family="Times New Roman,serif" font-size="14.00">triggers tutorial</text>
</g>
</g>
</svg>
