<?xml version="1.0" encoding="UTF-8" standalone="no"?>
<!DOCTYPE svg PUBLIC "-//W3C//DTD SVG 1.1//EN"
 "http://www.w3.org/Graphics/SVG/1.1/DTD/svg11.dtd">
<!-- Generated by graphviz version 12.2.1 (20241206.2353)
 -->
<!-- Title: G Pages: 1 -->
<svg width="1264pt" height="260pt"
 viewBox="0.00 0.00 1263.62 260.00" xmlns="http://www.w3.org/2000/svg" xmlns:xlink="http://www.w3.org/1999/xlink">
<g id="graph0" class="graph" transform="scale(1 1) rotate(0) translate(4 256)">
<title>G</title>
<polygon fill="white" stroke="none" points="-4,4 -4,-256 1259.62,-256 1259.62,4 -4,4"/>
<!-- Main_Body -->
<g id="node1" class="node">
<title>Main_Body</title>
<polygon fill="none" stroke="black" points="806.75,-252 725.5,-252 725.5,-216 806.75,-216 806.75,-252"/>
<text text-anchor="middle" x="766.12" y="-228.95" font-family="Times New Roman,serif" font-size="14.00">Main_Body</text>
</g>
<!-- Obtain_Coords_Connect -->
<g id="node2" class="node">
<title>Obtain_Coords_Connect</title>
<polygon fill="none" stroke="black" points="218.25,-180 68,-180 68,-144 218.25,-144 218.25,-180"/>
<text text-anchor="middle" x="143.12" y="-156.95" font-family="Times New Roman,serif" font-size="14.00">Obtain_Coords_Connect</text>
</g>
<!-- Main_Body&#45;&gt;Obtain_Coords_Connect -->
<g id="edge1" class="edge">
<title>Main_Body&#45;&gt;Obtain_Coords_Connect</title>
<path fill="none" stroke="black" d="M725.12,-230.36C636.64,-224.35 421.05,-208.1 229.71,-180.14"/>
<polygon fill="black" stroke="black" points="230.5,-176.72 220.1,-178.72 229.48,-183.64 230.5,-176.72"/>
</g>
<!-- Manage_Ionic_Information -->
<g id="node3" class="node">
<title>Manage_Ionic_Information</title>
<polygon fill="none" stroke="black" points="403.5,-180 236.75,-180 236.75,-144 403.5,-144 403.5,-180"/>
<text text-anchor="middle" x="320.12" y="-156.95" font-family="Times New Roman,serif" font-size="14.00">Manage_Ionic_Information</text>
</g>
<!-- Main_Body&#45;&gt;Manage_Ionic_Information -->
<g id="edge2" class="edge">
<title>Main_Body&#45;&gt;Manage_Ionic_Information</title>
<path fill="none" stroke="black" d="M725.02,-227.26C661.11,-218.24 533.77,-199.9 414.86,-180.26"/>
<polygon fill="black" stroke="black" points="415.69,-176.85 405.25,-178.66 414.54,-183.75 415.69,-176.85"/>
</g>
<!-- Prepare_Atoms_and_Bonds -->
<g id="node4" class="node">
<title>Prepare_Atoms_and_Bonds</title>
<polygon fill="none" stroke="black" points="590.25,-180 422,-180 422,-144 590.25,-144 590.25,-180"/>
<text text-anchor="middle" x="506.12" y="-156.95" font-family="Times New Roman,serif" font-size="14.00">Prepare_Atoms_and_Bonds</text>
</g>
<!-- Main_Body&#45;&gt;Prepare_Atoms_and_Bonds -->
<g id="edge3" class="edge">
<title>Main_Body&#45;&gt;Prepare_Atoms_and_Bonds</title>
<path fill="none" stroke="black" d="M725.21,-221.99C686.95,-211.68 628.85,-196.04 582.1,-183.45"/>
<polygon fill="black" stroke="black" points="583.11,-180.1 572.55,-180.88 581.29,-186.86 583.11,-180.1"/>
</g>
<!-- Prepare_Ions -->
<g id="node5" class="node">
<title>Prepare_Ions</title>
<polygon fill="none" stroke="black" points="695.75,-180 608.5,-180 608.5,-144 695.75,-144 695.75,-180"/>
<text text-anchor="middle" x="652.12" y="-156.95" font-family="Times New Roman,serif" font-size="14.00">Prepare_Ions</text>
</g>
<!-- Main_Body&#45;&gt;Prepare_Ions -->
<g id="edge4" class="edge">
<title>Main_Body&#45;&gt;Prepare_Ions</title>
<path fill="none" stroke="black" d="M737.65,-215.52C723.12,-206.6 705.27,-195.63 689.63,-186.03"/>
<polygon fill="black" stroke="black" points="691.88,-183.3 681.52,-181.05 688.22,-189.27 691.88,-183.3"/>
</g>
<!-- Build_Molecule -->
<g id="node6" class="node">
<title>Build_Molecule</title>
<polygon fill="none" stroke="black" points="818.38,-180 713.88,-180 713.88,-144 818.38,-144 818.38,-180"/>
<text text-anchor="middle" x="766.12" y="-156.95" font-family="Times New Roman,serif" font-size="14.00">Build_Molecule</text>
</g>
<!-- Main_Body&#45;&gt;Build_Molecule -->
<g id="edge5" class="edge">
<title>Main_Body&#45;&gt;Build_Molecule</title>
<path fill="none" stroke="black" d="M766.12,-215.7C766.12,-208.41 766.12,-199.73 766.12,-191.54"/>
<polygon fill="black" stroke="black" points="769.63,-191.62 766.13,-181.62 762.63,-191.62 769.63,-191.62"/>
</g>
<!-- Highlight_Atoms -->
<g id="node7" class="node">
<title>Highlight_Atoms</title>
<polygon fill="none" stroke="black" points="947.75,-180 836.5,-180 836.5,-144 947.75,-144 947.75,-180"/>
<text text-anchor="middle" x="892.12" y="-156.95" font-family="Times New Roman,serif" font-size="14.00">Highlight_Atoms</text>
</g>
<!-- Main_Body&#45;&gt;Highlight_Atoms -->
<g id="edge6" class="edge">
<title>Main_Body&#45;&gt;Highlight_Atoms</title>
<path fill="none" stroke="black" d="M797.6,-215.52C813.8,-206.51 833.76,-195.42 851.16,-185.76"/>
<polygon fill="black" stroke="black" points="852.69,-188.91 859.73,-181 849.29,-182.79 852.69,-188.91"/>
</g>
<!-- Highlight_Bonds -->
<g id="node8" class="node">
<title>Highlight_Bonds</title>
<polygon fill="none" stroke="black" points="1074.62,-180 965.62,-180 965.62,-144 1074.62,-144 1074.62,-180"/>
<text text-anchor="middle" x="1020.12" y="-156.95" font-family="Times New Roman,serif" font-size="14.00">Highlight_Bonds</text>
</g>
<!-- Main_Body&#45;&gt;Highlight_Bonds -->
<g id="edge7" class="edge">
<title>Main_Body&#45;&gt;Highlight_Bonds</title>
<path fill="none" stroke="black" d="M807.22,-221.68C846.99,-210.71 907.93,-193.92 954.44,-181.1"/>
<polygon fill="black" stroke="black" points="955.16,-184.54 963.87,-178.5 953.3,-177.79 955.16,-184.54"/>
</g>
<!-- Animate -->
<g id="node9" class="node">
<title>Animate</title>
<polygon fill="none" stroke="black" points="1134.75,-108 1071.5,-108 1071.5,-72 1134.75,-72 1134.75,-108"/>
<text text-anchor="middle" x="1103.12" y="-84.95" font-family="Times New Roman,serif" font-size="14.00">Animate</text>
</g>
<!-- Main_Body&#45;&gt;Animate -->
<g id="edge8" class="edge">
<title>Main_Body&#45;&gt;Animate</title>
<path fill="none" stroke="black" d="M807.03,-231.74C883.75,-228.52 1045.03,-217.37 1084.12,-180 1100.11,-164.72 1104.3,-139.55 1104.81,-119.87"/>
<polygon fill="black" stroke="black" points="1108.31,-119.95 1104.73,-109.97 1101.31,-120 1108.31,-119.95"/>
</g>
<!-- Manage_Export -->
<g id="node10" class="node">
<title>Manage_Export</title>
<polygon fill="none" stroke="black" points="1235,-180 1131.25,-180 1131.25,-144 1235,-144 1235,-180"/>
<text text-anchor="middle" x="1183.12" y="-156.95" font-family="Times New Roman,serif" font-size="14.00">Manage_Export</text>
</g>
<!-- Main_Body&#45;&gt;Manage_Export -->
<g id="edge9" class="edge">
<title>Main_Body&#45;&gt;Manage_Export</title>
<path fill="none" stroke="black" d="M807.17,-228.19C872.94,-220.16 1005.86,-202.67 1117.12,-180 1118.11,-179.8 1119.11,-179.59 1120.11,-179.38"/>
<polygon fill="black" stroke="black" points="1120.53,-182.87 1129.52,-177.28 1119,-176.04 1120.53,-182.87"/>
</g>
<!-- Read_com_File -->
<g id="node11" class="node">
<title>Read_com_File</title>
<polygon fill="none" stroke="black" points="105.25,-108 3,-108 3,-72 105.25,-72 105.25,-108"/>
<text text-anchor="middle" x="54.12" y="-84.95" font-family="Times New Roman,serif" font-size="14.00">Read_com_File</text>
</g>
<!-- Obtain_Coords_Connect&#45;&gt;Read_com_File -->
<g id="edge10" class="edge">
<title>Obtain_Coords_Connect&#45;&gt;Read_com_File</title>
<path fill="none" stroke="black" d="M121.12,-143.7C110.21,-135.11 96.85,-124.61 84.94,-115.24"/>
<polygon fill="black" stroke="black" points="87.39,-112.71 77.37,-109.28 83.07,-118.22 87.39,-112.71"/>
</g>
<!-- Read_xyz_File -->
<g id="node12" class="node">
<title>Read_xyz_File</title>
<polygon fill="none" stroke="black" points="221,-108 123.25,-108 123.25,-72 221,-72 221,-108"/>
<text text-anchor="middle" x="172.12" y="-84.95" font-family="Times New Roman,serif" font-size="14.00">Read_xyz_File</text>
</g>
<!-- Obtain_Coords_Connect&#45;&gt;Read_xyz_File -->
<g id="edge11" class="edge">
<title>Obtain_Coords_Connect&#45;&gt;Read_xyz_File</title>
<path fill="none" stroke="black" d="M150.29,-143.7C153.42,-136.15 157.16,-127.12 160.66,-118.68"/>
<polygon fill="black" stroke="black" points="163.87,-120.08 164.46,-109.5 157.4,-117.4 163.87,-120.08"/>
</g>
<!-- Refine_Data -->
<g id="node15" class="node">
<title>Refine_Data</title>
<polygon fill="none" stroke="black" points="357.25,-108 273,-108 273,-72 357.25,-72 357.25,-108"/>
<text text-anchor="middle" x="315.12" y="-84.95" font-family="Times New Roman,serif" font-size="14.00">Refine_Data</text>
</g>
<!-- Manage_Ionic_Information&#45;&gt;Refine_Data -->
<g id="edge14" class="edge">
<title>Manage_Ionic_Information&#45;&gt;Refine_Data</title>
<path fill="none" stroke="black" d="M318.89,-143.7C318.37,-136.41 317.75,-127.73 317.16,-119.54"/>
<polygon fill="black" stroke="black" points="320.66,-119.34 316.45,-109.61 313.68,-119.84 320.66,-119.34"/>
</g>
<!-- Refine_Elements -->
<g id="node16" class="node">
<title>Refine_Elements</title>
<polygon fill="none" stroke="black" points="613,-108 503.25,-108 503.25,-72 613,-72 613,-108"/>
<text text-anchor="middle" x="558.12" y="-84.95" font-family="Times New Roman,serif" font-size="14.00">Refine_Elements</text>
</g>
<!-- Prepare_Atoms_and_Bonds&#45;&gt;Refine_Elements -->
<g id="edge15" class="edge">
<title>Prepare_Atoms_and_Bonds&#45;&gt;Refine_Elements</title>
<path fill="none" stroke="black" d="M518.98,-143.7C524.9,-135.73 532.05,-126.1 538.61,-117.26"/>
<polygon fill="black" stroke="black" points="541.36,-119.43 544.52,-109.32 535.74,-115.26 541.36,-119.43"/>
</g>
<!-- Create_Materials -->
<g id="node17" class="node">
<title>Create_Materials</title>
<polygon fill="none" stroke="black" points="485,-108 375.25,-108 375.25,-72 485,-72 485,-108"/>
<text text-anchor="middle" x="430.12" y="-84.95" font-family="Times New Roman,serif" font-size="14.00">Create_Materials</text>
</g>
<!-- Prepare_Atoms_and_Bonds&#45;&gt;Create_Materials -->
<g id="edge16" class="edge">
<title>Prepare_Atoms_and_Bonds&#45;&gt;Create_Materials</title>
<path fill="none" stroke="black" d="M487.34,-143.7C478.3,-135.37 467.28,-125.22 457.34,-116.07"/>
<polygon fill="black" stroke="black" points="459.8,-113.57 450.07,-109.37 455.06,-118.72 459.8,-113.57"/>
</g>
<!-- Prepare_Ions&#45;&gt;Refine_Elements -->
<g id="edge17" class="edge">
<title>Prepare_Ions&#45;&gt;Refine_Elements</title>
<path fill="none" stroke="black" d="M628.89,-143.7C617.25,-135.03 602.98,-124.4 590.3,-114.96"/>
<polygon fill="black" stroke="black" points="592.74,-112.42 582.63,-109.25 588.56,-118.03 592.74,-112.42"/>
</g>
<!-- Ions -->
<g id="node18" class="node">
<title>Ions</title>
<polygon fill="none" stroke="black" points="685.12,-108 631.12,-108 631.12,-72 685.12,-72 685.12,-108"/>
<text text-anchor="middle" x="658.12" y="-84.95" font-family="Times New Roman,serif" font-size="14.00">Ions</text>
</g>
<!-- Prepare_Ions&#45;&gt;Ions -->
<g id="edge18" class="edge">
<title>Prepare_Ions&#45;&gt;Ions</title>
<path fill="none" stroke="black" d="M653.61,-143.7C654.23,-136.41 654.98,-127.73 655.68,-119.54"/>
<polygon fill="black" stroke="black" points="659.16,-119.87 656.53,-109.61 652.19,-119.28 659.16,-119.87"/>
</g>
<!-- Instantiate_Molecules -->
<g id="node19" class="node">
<title>Instantiate_Molecules</title>
<polygon fill="none" stroke="black" points="839.12,-108 703.12,-108 703.12,-72 839.12,-72 839.12,-108"/>
<text text-anchor="middle" x="771.12" y="-84.95" font-family="Times New Roman,serif" font-size="14.00">Instantiate_Molecules</text>
</g>
<!-- Build_Molecule&#45;&gt;Instantiate_Molecules -->
<g id="edge19" class="edge">
<title>Build_Molecule&#45;&gt;Instantiate_Molecules</title>
<path fill="none" stroke="black" d="M767.36,-143.7C767.88,-136.41 768.5,-127.73 769.09,-119.54"/>
<polygon fill="black" stroke="black" points="772.57,-119.84 769.8,-109.61 765.59,-119.34 772.57,-119.84"/>
</g>
<!-- AtomHighlighter -->
<g id="node20" class="node">
<title>AtomHighlighter</title>
<polygon fill="none" stroke="black" points="1013,-108 903.25,-108 903.25,-72 1013,-72 1013,-108"/>
<text text-anchor="middle" x="958.12" y="-84.95" font-family="Times New Roman,serif" font-size="14.00">AtomHighlighter</text>
</g>
<!-- Highlight_Atoms&#45;&gt;AtomHighlighter -->
<g id="edge20" class="edge">
<title>Highlight_Atoms&#45;&gt;AtomHighlighter</title>
<path fill="none" stroke="black" d="M908.44,-143.7C916.19,-135.47 925.61,-125.48 934.16,-116.42"/>
<polygon fill="black" stroke="black" points="936.65,-118.88 940.96,-109.21 931.55,-114.08 936.65,-118.88"/>
</g>
<!-- Highlight_Bonds&#45;&gt;AtomHighlighter -->
<g id="edge21" class="edge">
<title>Highlight_Bonds&#45;&gt;AtomHighlighter</title>
<path fill="none" stroke="black" d="M1004.8,-143.7C997.59,-135.56 988.85,-125.69 980.89,-116.7"/>
<polygon fill="black" stroke="black" points="983.53,-114.4 974.28,-109.24 978.29,-119.04 983.53,-114.4"/>
</g>
<!-- Animate&#45;&gt;Animate -->
<g id="edge22" class="edge">
<title>Animate&#45;&gt;Animate</title>
<path fill="none" stroke="black" d="M1135.1,-103.49C1144.99,-103.21 1152.75,-98.72 1152.75,-90 1152.75,-84.96 1150.16,-81.33 1146.06,-79.11"/>
<polygon fill="black" stroke="black" points="1147.11,-75.77 1136.58,-76.86 1145.5,-82.58 1147.11,-75.77"/>
</g>
<!-- Manage_Export&#45;&gt;Animate -->
<g id="edge23" class="edge">
<title>Manage_Export&#45;&gt;Animate</title>
<path fill="none" stroke="black" d="M1163.35,-143.7C1153.73,-135.28 1142,-125.02 1131.46,-115.79"/>
<polygon fill="black" stroke="black" points="1133.92,-113.29 1124.09,-109.34 1129.31,-118.56 1133.92,-113.29"/>
</g>
<!-- Export_Data -->
<g id="node21" class="node">
<title>Export_Data</title>
<polygon fill="none" stroke="black" points="1255.62,-108 1170.62,-108 1170.62,-72 1255.62,-72 1255.62,-108"/>
<text text-anchor="middle" x="1213.12" y="-84.95" font-family="Times New Roman,serif" font-size="14.00">Export_Data</text>
</g>
<!-- Manage_Export&#45;&gt;Export_Data -->
<g id="edge24" class="edge">
<title>Manage_Export&#45;&gt;Export_Data</title>
<path fill="none" stroke="black" d="M1190.54,-143.7C1193.77,-136.15 1197.65,-127.12 1201.26,-118.68"/>
<polygon fill="black" stroke="black" points="1204.48,-120.07 1205.2,-109.5 1198.04,-117.31 1204.48,-120.07"/>
</g>
<!-- Raw_Parameters -->
<g id="node13" class="node">
<title>Raw_Parameters</title>
<polygon fill="none" stroke="black" points="108.25,-36 0,-36 0,0 108.25,0 108.25,-36"/>
<text text-anchor="middle" x="54.12" y="-12.95" font-family="Times New Roman,serif" font-size="14.00">Raw_Parameters</text>
</g>
<!-- Read_com_File&#45;&gt;Raw_Parameters -->
<g id="edge12" class="edge">
<title>Read_com_File&#45;&gt;Raw_Parameters</title>
<path fill="none" stroke="black" d="M54.12,-71.7C54.12,-64.41 54.12,-55.73 54.12,-47.54"/>
<polygon fill="black" stroke="black" points="57.63,-47.62 54.13,-37.62 50.63,-47.62 57.63,-47.62"/>
</g>
<!-- XyzReader -->
<g id="node14" class="node">
<title>XyzReader</title>
<polygon fill="none" stroke="black" points="210.5,-36 133.75,-36 133.75,0 210.5,0 210.5,-36"/>
<text text-anchor="middle" x="172.12" y="-12.95" font-family="Times New Roman,serif" font-size="14.00">XyzReader</text>
</g>
<!-- Read_xyz_File&#45;&gt;XyzReader -->
<g id="edge13" class="edge">
<title>Read_xyz_File&#45;&gt;XyzReader</title>
<path fill="none" stroke="black" d="M172.12,-71.7C172.12,-64.41 172.12,-55.73 172.12,-47.54"/>
<polygon fill="black" stroke="black" points="175.63,-47.62 172.13,-37.62 168.63,-47.62 175.63,-47.62"/>
</g>
</g>
</svg>
