<?xml version="1.0" encoding="UTF-8" standalone="no"?>
<!DOCTYPE svg PUBLIC "-//W3C//DTD SVG 1.1//EN"
 "http://www.w3.org/Graphics/SVG/1.1/DTD/svg11.dtd">
<!-- Generated by graphviz version 12.2.1 (20241206.2353)
 -->
<!-- Title: Gaussian2Blender Pages: 1 -->
<svg width="1321pt" height="404pt"
 viewBox="0.00 0.00 1321.01 404.00" xmlns="http://www.w3.org/2000/svg" xmlns:xlink="http://www.w3.org/1999/xlink">
<g id="graph0" class="graph" transform="scale(1 1) rotate(0) translate(4 400)">
<title>Gaussian2Blender</title>
<polygon fill="white" stroke="none" points="-4,4 -4,-400 1317.01,-400 1317.01,4 -4,4"/>
<!-- Gaussian2Blender -->
<g id="node1" class="node">
<title>Gaussian2Blender</title>
<polygon fill="gray" stroke="black" points="751.51,-396 636.51,-396 636.51,-360 751.51,-360 751.51,-396"/>
<text text-anchor="middle" x="694.01" y="-372.95" font-family="Times New Roman,serif" font-size="14.00" fill="white">Gaussian2Blender</text>
</g>
<!-- assign_ionic_params -->
<g id="node2" class="node">
<title>assign_ionic_params</title>
<polygon fill="lightblue" stroke="black" points="138.01,-180 8.01,-180 8.01,-144 138.01,-144 138.01,-180"/>
<text text-anchor="middle" x="73.01" y="-156.95" font-family="Times New Roman,serif" font-size="14.00">assign_ionic_params</text>
</g>
<!-- Gaussian2Blender&#45;&gt;assign_ionic_params -->
<g id="edge1" class="edge">
<title>Gaussian2Blender&#45;&gt;assign_ionic_params</title>
<path fill="none" stroke="black" d="M636.23,-376.88C479.61,-375.95 55.87,-369.25 14.01,-324 -21.62,-285.48 19.78,-223.69 49.03,-188.93"/>
<polygon fill="black" stroke="black" points="51.62,-191.28 55.52,-181.43 46.33,-186.7 51.62,-191.28"/>
</g>
<!-- convert -->
<g id="node3" class="node">
<title>convert</title>
<polygon fill="lightblue" stroke="black" points="79.26,-324 22.76,-324 22.76,-288 79.26,-288 79.26,-324"/>
<text text-anchor="middle" x="51.01" y="-300.95" font-family="Times New Roman,serif" font-size="14.00">convert</text>
</g>
<!-- Gaussian2Blender&#45;&gt;convert -->
<g id="edge2" class="edge">
<title>Gaussian2Blender&#45;&gt;convert</title>
<path fill="none" stroke="black" d="M636.34,-377.55C528.21,-377.34 288.28,-371.02 93.01,-324 92.18,-323.8 91.34,-323.59 90.5,-323.36"/>
<polygon fill="black" stroke="black" points="91.59,-320.03 81,-320.32 89.46,-326.7 91.59,-320.03"/>
</g>
<!-- convert_manager -->
<g id="node4" class="node">
<title>convert_manager</title>
<polygon fill="lightblue" stroke="black" points="162.26,-252 51.76,-252 51.76,-216 162.26,-216 162.26,-252"/>
<text text-anchor="middle" x="107.01" y="-228.95" font-family="Times New Roman,serif" font-size="14.00">convert_manager</text>
</g>
<!-- Gaussian2Blender&#45;&gt;convert_manager -->
<g id="edge3" class="edge">
<title>Gaussian2Blender&#45;&gt;convert_manager</title>
<path fill="none" stroke="black" d="M636.14,-375.43C499.13,-371.17 163.6,-357.42 126.01,-324 109.31,-309.15 105.26,-283.54 104.99,-263.59"/>
<polygon fill="black" stroke="black" points="108.48,-263.92 105.18,-253.85 101.48,-263.78 108.48,-263.92"/>
</g>
<!-- exceptions_test_passed -->
<g id="node5" class="node">
<title>exceptions_test_passed</title>
<polygon fill="lightblue" stroke="black" points="298.01,-180 156.01,-180 156.01,-144 298.01,-144 298.01,-180"/>
<text text-anchor="middle" x="227.01" y="-156.95" font-family="Times New Roman,serif" font-size="14.00">exceptions_test_passed</text>
</g>
<!-- Gaussian2Blender&#45;&gt;exceptions_test_passed -->
<g id="edge4" class="edge">
<title>Gaussian2Blender&#45;&gt;exceptions_test_passed</title>
<path fill="none" stroke="black" d="M636.4,-371.41C590.21,-365.03 524.94,-351.65 474.01,-324 453.56,-312.9 456.07,-299.78 436.01,-288 389.82,-260.88 367.2,-279.11 321.01,-252 292.6,-235.33 265.91,-208.58 248.29,-188.75"/>
<polygon fill="black" stroke="black" points="251.04,-186.59 241.84,-181.33 245.76,-191.18 251.04,-186.59"/>
</g>
<!-- help_animation_convert -->
<g id="node6" class="node">
<title>help_animation_convert</title>
<polygon fill="lightblue" stroke="black" points="283.01,-324 135.01,-324 135.01,-288 283.01,-288 283.01,-324"/>
<text text-anchor="middle" x="209.01" y="-300.95" font-family="Times New Roman,serif" font-size="14.00">help_animation_convert</text>
</g>
<!-- Gaussian2Blender&#45;&gt;help_animation_convert -->
<g id="edge5" class="edge">
<title>Gaussian2Blender&#45;&gt;help_animation_convert</title>
<path fill="none" stroke="black" d="M636.23,-370.69C560.19,-362.09 422.12,-345.49 294.32,-324.32"/>
<polygon fill="black" stroke="black" points="295.11,-320.91 284.67,-322.71 293.95,-327.81 295.11,-320.91"/>
</g>
<!-- help_single_convert -->
<g id="node7" class="node">
<title>help_single_convert</title>
<polygon fill="lightblue" stroke="black" points="426.76,-324 301.26,-324 301.26,-288 426.76,-288 426.76,-324"/>
<text text-anchor="middle" x="364.01" y="-300.95" font-family="Times New Roman,serif" font-size="14.00">help_single_convert</text>
</g>
<!-- Gaussian2Blender&#45;&gt;help_single_convert -->
<g id="edge6" class="edge">
<title>Gaussian2Blender&#45;&gt;help_single_convert</title>
<path fill="none" stroke="black" d="M636.19,-365.07C584.89,-354.45 507.92,-338.39 441.01,-324 440.01,-323.79 439.01,-323.57 438,-323.35"/>
<polygon fill="black" stroke="black" points="439.02,-319.99 428.51,-321.29 437.54,-326.83 439.02,-319.99"/>
</g>
<!-- individual_convert -->
<g id="node8" class="node">
<title>individual_convert</title>
<polygon fill="lightblue" stroke="black" points="983.01,-180 865.01,-180 865.01,-144 983.01,-144 983.01,-180"/>
<text text-anchor="middle" x="924.01" y="-156.95" font-family="Times New Roman,serif" font-size="14.00">individual_convert</text>
</g>
<!-- Gaussian2Blender&#45;&gt;individual_convert -->
<g id="edge7" class="edge">
<title>Gaussian2Blender&#45;&gt;individual_convert</title>
<path fill="none" stroke="black" d="M751.82,-373.51C820.51,-368.02 928.99,-354.64 954.01,-324 985.22,-285.78 960.33,-225.39 941.05,-190.45"/>
<polygon fill="black" stroke="black" points="944.09,-188.72 936.08,-181.79 938.03,-192.21 944.09,-188.72"/>
</g>
<!-- initialize_animation_tutorial -->
<g id="node9" class="node">
<title>initialize_animation_tutorial</title>
<polygon fill="lightblue" stroke="black" points="779.26,-324 608.76,-324 608.76,-288 779.26,-288 779.26,-324"/>
<text text-anchor="middle" x="694.01" y="-300.95" font-family="Times New Roman,serif" font-size="14.00">initialize_animation_tutorial</text>
</g>
<!-- Gaussian2Blender&#45;&gt;initialize_animation_tutorial -->
<g id="edge8" class="edge">
<title>Gaussian2Blender&#45;&gt;initialize_animation_tutorial</title>
<path fill="none" stroke="black" d="M694.01,-359.7C694.01,-352.41 694.01,-343.73 694.01,-335.54"/>
<polygon fill="black" stroke="black" points="697.51,-335.62 694.01,-325.62 690.51,-335.62 697.51,-335.62"/>
</g>
<!-- initialize_single_tutorial -->
<g id="node10" class="node">
<title>initialize_single_tutorial</title>
<polygon fill="lightblue" stroke="black" points="945.01,-324 797.01,-324 797.01,-288 945.01,-288 945.01,-324"/>
<text text-anchor="middle" x="871.01" y="-300.95" font-family="Times New Roman,serif" font-size="14.00">initialize_single_tutorial</text>
</g>
<!-- Gaussian2Blender&#45;&gt;initialize_single_tutorial -->
<g id="edge9" class="edge">
<title>Gaussian2Blender&#45;&gt;initialize_single_tutorial</title>
<path fill="none" stroke="black" d="M738.22,-359.52C761.96,-350.13 791.43,-338.47 816.58,-328.53"/>
<polygon fill="black" stroke="black" points="817.64,-331.87 825.65,-324.94 815.06,-325.36 817.64,-331.87"/>
</g>
<!-- overwrite_animation_frames -->
<g id="node11" class="node">
<title>overwrite_animation_frames</title>
<polygon fill="lightblue" stroke="black" points="1167.76,-108 994.26,-108 994.26,-72 1167.76,-72 1167.76,-108"/>
<text text-anchor="middle" x="1081.01" y="-84.95" font-family="Times New Roman,serif" font-size="14.00">overwrite_animation_frames</text>
</g>
<!-- Gaussian2Blender&#45;&gt;overwrite_animation_frames -->
<g id="edge10" class="edge">
<title>Gaussian2Blender&#45;&gt;overwrite_animation_frames</title>
<path fill="none" stroke="black" d="M751.8,-373.56C829.99,-367.83 964.08,-353.89 1002.01,-324 1065.7,-273.81 1078.37,-169.92 1080.67,-119.58"/>
<polygon fill="black" stroke="black" points="1084.16,-119.91 1081,-109.79 1077.16,-119.67 1084.16,-119.91"/>
</g>
<!-- overwrite_parameters_script -->
<g id="node12" class="node">
<title>overwrite_parameters_script</title>
<polygon fill="lightblue" stroke="black" points="976.63,-108 805.38,-108 805.38,-72 976.63,-72 976.63,-108"/>
<text text-anchor="middle" x="891.01" y="-84.95" font-family="Times New Roman,serif" font-size="14.00">overwrite_parameters_script</text>
</g>
<!-- Gaussian2Blender&#45;&gt;overwrite_parameters_script -->
<g id="edge11" class="edge">
<title>Gaussian2Blender&#45;&gt;overwrite_parameters_script</title>
<path fill="none" stroke="black" d="M751.7,-373.98C824.94,-368.86 945.37,-355.76 975.01,-324 1029.84,-265.26 1033.58,-212.77 992.01,-144 984.25,-131.17 972.25,-121.3 959.2,-113.75"/>
<polygon fill="black" stroke="black" points="960.88,-110.68 950.4,-109.12 957.62,-116.87 960.88,-110.68"/>
</g>
<!-- place -->
<g id="node13" class="node">
<title>place</title>
<polygon fill="lightblue" stroke="black" points="1131.01,-324 1077.01,-324 1077.01,-288 1131.01,-288 1131.01,-324"/>
<text text-anchor="middle" x="1104.01" y="-300.95" font-family="Times New Roman,serif" font-size="14.00">place</text>
</g>
<!-- Gaussian2Blender&#45;&gt;place -->
<g id="edge12" class="edge">
<title>Gaussian2Blender&#45;&gt;place</title>
<path fill="none" stroke="black" d="M751.81,-373.19C825.24,-367.34 955.35,-353.55 1063.01,-324 1063.98,-323.73 1064.97,-323.45 1065.96,-323.15"/>
<polygon fill="black" stroke="black" points="1066.81,-326.55 1075.12,-319.98 1064.53,-319.94 1066.81,-326.55"/>
</g>
<!-- place_regions -->
<g id="node14" class="node">
<title>place_regions</title>
<polygon fill="lightblue" stroke="black" points="1240.51,-324 1149.51,-324 1149.51,-288 1240.51,-288 1240.51,-324"/>
<text text-anchor="middle" x="1195.01" y="-300.95" font-family="Times New Roman,serif" font-size="14.00">place_regions</text>
</g>
<!-- Gaussian2Blender&#45;&gt;place_regions -->
<g id="edge13" class="edge">
<title>Gaussian2Blender&#45;&gt;place_regions</title>
<path fill="none" stroke="black" d="M751.94,-373.49C835.36,-367.69 994.19,-353.89 1138.05,-324.18"/>
<polygon fill="black" stroke="black" points="1138.71,-327.61 1147.78,-322.13 1137.27,-320.76 1138.71,-327.61"/>
</g>
<!-- reset_to_defaults -->
<g id="node15" class="node">
<title>reset_to_defaults</title>
<polygon fill="lightblue" stroke="black" points="591.13,-324 482.88,-324 482.88,-288 591.13,-288 591.13,-324"/>
<text text-anchor="middle" x="537.01" y="-300.95" font-family="Times New Roman,serif" font-size="14.00">reset_to_defaults</text>
</g>
<!-- Gaussian2Blender&#45;&gt;reset_to_defaults -->
<g id="edge14" class="edge">
<title>Gaussian2Blender&#45;&gt;reset_to_defaults</title>
<path fill="none" stroke="black" d="M654.8,-359.52C634.11,-350.29 608.53,-338.89 586.49,-329.06"/>
<polygon fill="black" stroke="black" points="587.94,-325.87 577.38,-325 585.08,-332.27 587.94,-325.87"/>
</g>
<!-- run -->
<g id="node16" class="node">
<title>run</title>
<polygon fill="lightblue" stroke="black" points="1313.01,-324 1259.01,-324 1259.01,-288 1313.01,-288 1313.01,-324"/>
<text text-anchor="middle" x="1286.01" y="-300.95" font-family="Times New Roman,serif" font-size="14.00">run</text>
</g>
<!-- Gaussian2Blender&#45;&gt;run -->
<g id="edge15" class="edge">
<title>Gaussian2Blender&#45;&gt;run</title>
<path fill="none" stroke="black" d="M751.61,-377.98C851.88,-378.31 1064.54,-372.83 1247.94,-323.98"/>
<polygon fill="black" stroke="black" points="1248.68,-327.41 1257.41,-321.41 1246.84,-320.65 1248.68,-327.41"/>
</g>
<!-- IonRegion -->
<g id="node17" class="node">
<title>IonRegion</title>
<polygon fill="lightgreen" stroke="black" points="263.51,-108 190.51,-108 190.51,-72 263.51,-72 263.51,-108"/>
<text text-anchor="middle" x="227.01" y="-84.95" font-family="Times New Roman,serif" font-size="14.00">IonRegion</text>
</g>
<!-- assign_ionic_params&#45;&gt;IonRegion -->
<g id="edge16" class="edge">
<title>assign_ionic_params&#45;&gt;IonRegion</title>
<path fill="none" stroke="black" d="M111.47,-143.52C132.14,-134.12 157.81,-122.46 179.69,-112.51"/>
<polygon fill="black" stroke="black" points="181.06,-115.73 188.72,-108.4 178.17,-109.36 181.06,-115.73"/>
</g>
<!-- convert&#45;&gt;convert_manager -->
<g id="edge17" class="edge">
<title>convert&#45;&gt;convert_manager</title>
<path fill="none" stroke="black" d="M64.85,-287.7C71.29,-279.64 79.09,-269.89 86.22,-260.98"/>
<polygon fill="black" stroke="black" points="88.87,-263.28 92.38,-253.29 83.4,-258.91 88.87,-263.28"/>
</g>
<!-- convert_manager&#45;&gt;assign_ionic_params -->
<g id="edge19" class="edge">
<title>convert_manager&#45;&gt;assign_ionic_params</title>
<path fill="none" stroke="black" d="M98.61,-215.7C94.9,-208.07 90.45,-198.92 86.32,-190.4"/>
<polygon fill="black" stroke="black" points="89.5,-188.93 81.98,-181.47 83.2,-191.99 89.5,-188.93"/>
</g>
<!-- convert_manager&#45;&gt;exceptions_test_passed -->
<g id="edge18" class="edge">
<title>convert_manager&#45;&gt;exceptions_test_passed</title>
<path fill="none" stroke="black" d="M136.98,-215.52C152.27,-206.6 171.07,-195.63 187.53,-186.03"/>
<polygon fill="black" stroke="black" points="189.24,-189.09 196.11,-181.02 185.71,-183.04 189.24,-189.09"/>
</g>
<!-- convert_manager&#45;&gt;individual_convert -->
<g id="edge20" class="edge">
<title>convert_manager&#45;&gt;individual_convert</title>
<path fill="none" stroke="black" d="M162.42,-220.75C171.92,-218.94 181.72,-217.27 191.01,-216 432.75,-182.94 722.34,-169.7 853.41,-165.11"/>
<polygon fill="black" stroke="black" points="853.45,-168.61 863.32,-164.77 853.21,-161.62 853.45,-168.61"/>
</g>
<!-- exceptions_test_passed&#45;&gt;IonRegion -->
<g id="edge23" class="edge">
<title>exceptions_test_passed&#45;&gt;IonRegion</title>
<path fill="none" stroke="black" d="M227.01,-143.7C227.01,-136.41 227.01,-127.73 227.01,-119.54"/>
<polygon fill="black" stroke="black" points="230.51,-119.62 227.01,-109.62 223.51,-119.62 230.51,-119.62"/>
</g>
<!-- BlenderPath -->
<g id="node20" class="node">
<title>BlenderPath</title>
<polygon fill="lightgreen" stroke="black" points="435.38,-108 352.63,-108 352.63,-72 435.38,-72 435.38,-108"/>
<text text-anchor="middle" x="394.01" y="-84.95" font-family="Times New Roman,serif" font-size="14.00">BlenderPath</text>
</g>
<!-- exceptions_test_passed&#45;&gt;BlenderPath -->
<g id="edge21" class="edge">
<title>exceptions_test_passed&#45;&gt;BlenderPath</title>
<path fill="none" stroke="black" d="M268.72,-143.52C290.92,-134.21 318.43,-122.68 342.02,-112.79"/>
<polygon fill="black" stroke="black" points="343.28,-116.06 351.15,-108.97 340.57,-109.6 343.28,-116.06"/>
</g>
<!-- InputRegion -->
<g id="node22" class="node">
<title>InputRegion</title>
<polygon fill="lightgreen" stroke="black" points="708.76,-108 625.26,-108 625.26,-72 708.76,-72 708.76,-108"/>
<text text-anchor="middle" x="667.01" y="-84.95" font-family="Times New Roman,serif" font-size="14.00">InputRegion</text>
</g>
<!-- exceptions_test_passed&#45;&gt;InputRegion -->
<g id="edge22" class="edge">
<title>exceptions_test_passed&#45;&gt;InputRegion</title>
<path fill="none" stroke="black" d="M298.19,-149.68C386.4,-135.64 534.69,-112.05 613.7,-99.48"/>
<polygon fill="black" stroke="black" points="614.01,-102.98 623.34,-97.95 612.91,-96.06 614.01,-102.98"/>
</g>
<!-- Tutorial -->
<g id="node18" class="node">
<title>Tutorial</title>
<polygon fill="lightgreen" stroke="black" points="259.76,-252 200.26,-252 200.26,-216 259.76,-216 259.76,-252"/>
<text text-anchor="middle" x="230.01" y="-228.95" font-family="Times New Roman,serif" font-size="14.00">Tutorial</text>
</g>
<!-- help_animation_convert&#45;&gt;Tutorial -->
<g id="edge24" class="edge">
<title>help_animation_convert&#45;&gt;Tutorial</title>
<path fill="none" stroke="black" d="M214.2,-287.7C216.44,-280.24 219.11,-271.32 221.62,-262.97"/>
<polygon fill="black" stroke="black" points="224.92,-264.14 224.44,-253.55 218.22,-262.13 224.92,-264.14"/>
</g>
<!-- help_single_convert&#45;&gt;Tutorial -->
<g id="edge25" class="edge">
<title>help_single_convert&#45;&gt;Tutorial</title>
<path fill="none" stroke="black" d="M330.54,-287.52C312.14,-277.91 289.2,-265.92 269.88,-255.83"/>
<polygon fill="black" stroke="black" points="271.68,-252.82 261.2,-251.29 268.44,-259.03 271.68,-252.82"/>
</g>
<!-- individual_convert&#45;&gt;overwrite_animation_frames -->
<g id="edge26" class="edge">
<title>individual_convert&#45;&gt;overwrite_animation_frames</title>
<path fill="none" stroke="black" d="M963.22,-143.52C983.91,-134.29 1009.49,-122.89 1031.53,-113.06"/>
<polygon fill="black" stroke="black" points="1032.93,-116.27 1040.64,-109 1030.08,-109.87 1032.93,-116.27"/>
</g>
<!-- individual_convert&#45;&gt;overwrite_parameters_script -->
<g id="edge27" class="edge">
<title>individual_convert&#45;&gt;overwrite_parameters_script</title>
<path fill="none" stroke="black" d="M915.85,-143.7C912.26,-136.07 907.94,-126.92 903.92,-118.4"/>
<polygon fill="black" stroke="black" points="907.15,-117.03 899.72,-109.47 900.82,-120.01 907.15,-117.03"/>
</g>
<!-- OutputRegion -->
<g id="node21" class="node">
<title>OutputRegion</title>
<polygon fill="lightgreen" stroke="black" points="740.26,-252 647.76,-252 647.76,-216 740.26,-216 740.26,-252"/>
<text text-anchor="middle" x="694.01" y="-228.95" font-family="Times New Roman,serif" font-size="14.00">OutputRegion</text>
</g>
<!-- initialize_animation_tutorial&#45;&gt;OutputRegion -->
<g id="edge29" class="edge">
<title>initialize_animation_tutorial&#45;&gt;OutputRegion</title>
<path fill="none" stroke="black" d="M694.01,-287.7C694.01,-280.41 694.01,-271.73 694.01,-263.54"/>
<polygon fill="black" stroke="black" points="697.51,-263.62 694.01,-253.62 690.51,-263.62 697.51,-263.62"/>
</g>
<!-- initialize_animation_tutorial&#45;&gt;InputRegion -->
<g id="edge28" class="edge">
<title>initialize_animation_tutorial&#45;&gt;InputRegion</title>
<path fill="none" stroke="black" d="M719.68,-287.72C730.93,-278.58 742.94,-266.28 749.01,-252 755.27,-237.28 753.59,-231.33 749.01,-216 737.61,-177.85 710.43,-140.54 690.47,-116.76"/>
<polygon fill="black" stroke="black" points="693.39,-114.78 684.21,-109.48 688.08,-119.34 693.39,-114.78"/>
</g>
<!-- ActionRegion -->
<g id="node25" class="node">
<title>ActionRegion</title>
<polygon fill="lightgrey" stroke="black" points="887.88,-252 796.13,-252 796.13,-216 887.88,-216 887.88,-252"/>
<text text-anchor="middle" x="842.01" y="-228.95" font-family="Times New Roman,serif" font-size="14.00">ActionRegion</text>
</g>
<!-- initialize_animation_tutorial&#45;&gt;ActionRegion -->
<g id="edge30" class="edge">
<title>initialize_animation_tutorial&#45;&gt;ActionRegion</title>
<path fill="none" stroke="black" d="M730.97,-287.52C750.38,-278.34 774.37,-266.99 795.08,-257.2"/>
<polygon fill="black" stroke="black" points="796.35,-260.47 803.89,-253.03 793.36,-254.14 796.35,-260.47"/>
</g>
<!-- initialize_single_tutorial&#45;&gt;OutputRegion -->
<g id="edge32" class="edge">
<title>initialize_single_tutorial&#45;&gt;OutputRegion</title>
<path fill="none" stroke="black" d="M826.8,-287.52C803.06,-278.13 773.59,-266.47 748.44,-256.53"/>
<polygon fill="black" stroke="black" points="749.95,-253.36 739.37,-252.94 747.38,-259.87 749.95,-253.36"/>
</g>
<!-- initialize_single_tutorial&#45;&gt;InputRegion -->
<g id="edge31" class="edge">
<title>initialize_single_tutorial&#45;&gt;InputRegion</title>
<path fill="none" stroke="black" d="M883.9,-287.57C896.04,-268.83 910.5,-238.69 897.01,-216 877.14,-182.58 781.08,-138 719.56,-112.1"/>
<polygon fill="black" stroke="black" points="721.23,-109 710.65,-108.38 718.53,-115.46 721.23,-109"/>
</g>
<!-- initialize_single_tutorial&#45;&gt;ActionRegion -->
<g id="edge33" class="edge">
<title>initialize_single_tutorial&#45;&gt;ActionRegion</title>
<path fill="none" stroke="black" d="M863.84,-287.7C860.72,-280.15 856.97,-271.12 853.48,-262.68"/>
<polygon fill="black" stroke="black" points="856.74,-261.4 849.67,-253.5 850.27,-264.08 856.74,-261.4"/>
</g>
<!-- Utility -->
<g id="node19" class="node">
<title>Utility</title>
<polygon fill="lightgreen" stroke="black" points="1013.01,-36 959.01,-36 959.01,0 1013.01,0 1013.01,-36"/>
<text text-anchor="middle" x="986.01" y="-12.95" font-family="Times New Roman,serif" font-size="14.00">Utility</text>
</g>
<!-- overwrite_animation_frames&#45;&gt;Utility -->
<g id="edge34" class="edge">
<title>overwrite_animation_frames&#45;&gt;Utility</title>
<path fill="none" stroke="black" d="M1057.53,-71.7C1045.77,-63.03 1031.34,-52.4 1018.53,-42.96"/>
<polygon fill="black" stroke="black" points="1020.9,-40.36 1010.77,-37.24 1016.74,-45.99 1020.9,-40.36"/>
</g>
<!-- overwrite_parameters_script&#45;&gt;Utility -->
<g id="edge35" class="edge">
<title>overwrite_parameters_script&#45;&gt;Utility</title>
<path fill="none" stroke="black" d="M914.49,-71.7C926.25,-63.03 940.68,-52.4 953.49,-42.96"/>
<polygon fill="black" stroke="black" points="955.27,-45.99 961.25,-37.24 951.12,-40.36 955.27,-45.99"/>
</g>
<!-- reset_to_defaults&#45;&gt;IonRegion -->
<g id="edge39" class="edge">
<title>reset_to_defaults&#45;&gt;IonRegion</title>
<path fill="none" stroke="black" d="M482.45,-291.26C427.53,-277.23 350.19,-256.84 345.01,-252 307.81,-217.28 338.29,-184.14 307.01,-144 297.96,-132.39 285.62,-122.48 273.35,-114.47"/>
<polygon fill="black" stroke="black" points="275.22,-111.52 264.87,-109.26 271.56,-117.48 275.22,-111.52"/>
</g>
<!-- reset_to_defaults&#45;&gt;Tutorial -->
<g id="edge42" class="edge">
<title>reset_to_defaults&#45;&gt;Tutorial</title>
<path fill="none" stroke="black" d="M482.48,-292.57C421.83,-278.74 325.26,-256.72 270.81,-244.3"/>
<polygon fill="black" stroke="black" points="271.87,-240.95 261.34,-242.14 270.31,-247.78 271.87,-240.95"/>
</g>
<!-- reset_to_defaults&#45;&gt;BlenderPath -->
<g id="edge36" class="edge">
<title>reset_to_defaults&#45;&gt;BlenderPath</title>
<path fill="none" stroke="black" d="M516.61,-287.6C505.84,-277.81 492.87,-264.97 483.01,-252 450.19,-208.82 421.76,-152.09 406.32,-118.78"/>
<polygon fill="black" stroke="black" points="409.57,-117.46 402.23,-109.81 403.2,-120.36 409.57,-117.46"/>
</g>
<!-- reset_to_defaults&#45;&gt;OutputRegion -->
<g id="edge37" class="edge">
<title>reset_to_defaults&#45;&gt;OutputRegion</title>
<path fill="none" stroke="black" d="M576.22,-287.52C596.91,-278.29 622.49,-266.89 644.53,-257.06"/>
<polygon fill="black" stroke="black" points="645.93,-260.27 653.64,-253 643.08,-253.87 645.93,-260.27"/>
</g>
<!-- reset_to_defaults&#45;&gt;InputRegion -->
<g id="edge38" class="edge">
<title>reset_to_defaults&#45;&gt;InputRegion</title>
<path fill="none" stroke="black" d="M563.64,-287.59C576.29,-278.25 590.84,-265.83 601.01,-252 631.43,-210.64 650.55,-153.23 659.96,-119.32"/>
<polygon fill="black" stroke="black" points="663.3,-120.39 662.5,-109.83 656.54,-118.58 663.3,-120.39"/>
</g>
<!-- ConsoleRegion -->
<g id="node23" class="node">
<title>ConsoleRegion</title>
<polygon fill="lightgreen" stroke="black" points="591.63,-252 492.38,-252 492.38,-216 591.63,-216 591.63,-252"/>
<text text-anchor="middle" x="542.01" y="-228.95" font-family="Times New Roman,serif" font-size="14.00">ConsoleRegion</text>
</g>
<!-- reset_to_defaults&#45;&gt;ConsoleRegion -->
<g id="edge40" class="edge">
<title>reset_to_defaults&#45;&gt;ConsoleRegion</title>
<path fill="none" stroke="black" d="M538.25,-287.7C538.77,-280.41 539.39,-271.73 539.97,-263.54"/>
<polygon fill="black" stroke="black" points="543.46,-263.84 540.68,-253.61 536.48,-263.34 543.46,-263.84"/>
</g>
<!-- Information -->
<g id="node24" class="node">
<title>Information</title>
<polygon fill="lightgreen" stroke="black" points="435.63,-252 354.38,-252 354.38,-216 435.63,-216 435.63,-252"/>
<text text-anchor="middle" x="395.01" y="-228.95" font-family="Times New Roman,serif" font-size="14.00">Information</text>
</g>
<!-- reset_to_defaults&#45;&gt;Information -->
<g id="edge41" class="edge">
<title>reset_to_defaults&#45;&gt;Information</title>
<path fill="none" stroke="black" d="M501.54,-287.52C482.94,-278.34 459.94,-267.01 440.08,-257.22"/>
<polygon fill="black" stroke="black" points="441.9,-254.21 431.38,-252.93 438.8,-260.49 441.9,-254.21"/>
</g>
</g>
</svg>
